<svg width="22" height="22" viewBox="0 0 22 22" fill="none" xmlns="http://www.w3.org/2000/svg">
<g opacity="0.515951">
<path fill-rule="evenodd" clip-rule="evenodd" d="M17.622 13.7157L21.2566 17.3367C22.2478 18.4339 22.2478 20.0798 21.2566 21.1771C20.1552 22.2743 18.5031 22.2743 17.4018 21.1771L13.7672 17.5561C12.4456 18.2145 10.9036 18.6534 9.3617 18.6534C4.18523 18.6534 0 14.4838 0 9.32668C0 4.16958 4.18523 0 9.3617 0C14.5382 0 18.7234 4.16958 18.7234 9.32668C18.7234 10.8628 18.2829 12.399 17.622 13.7157ZM2.20275 9.32668C2.20275 13.2768 5.39675 16.4589 9.3617 16.4589C13.3267 16.4589 16.5207 13.2768 16.5207 9.32668C16.5207 5.37656 13.3267 2.19451 9.3617 2.19451C5.39675 2.19451 2.20275 5.37656 2.20275 9.32668Z" fill="black"/>
</g>
</svg>
