<svg width="17" height="17" viewBox="0 0 17 17" fill="none" xmlns="http://www.w3.org/2000/svg">
<path fill-rule="evenodd" clip-rule="evenodd" d="M8.30771 15.5834H2.07691C1.69475 15.5834 1.38462 15.266 1.38462 14.875V2.12502C1.38462 1.73402 1.69479 1.4167 2.07691 1.4167H8.30771C8.69055 1.4167 9 1.10009 9 0.708385C9 0.316681 8.69055 0 8.30771 0H2.07691C0.931837 0 0 0.953441 0 2.12502V14.875C0 16.0466 0.931837 17 2.07691 17H8.30771C8.69055 17 9 16.6834 9 16.2917C9 15.9 8.69055 15.5834 8.30771 15.5834Z" fill="white"/>
<path fill-rule="evenodd" clip-rule="evenodd" d="M16.7962 7.49141L12.6369 3.20564C12.3688 2.92849 11.9351 2.93208 11.6696 3.2128C11.4042 3.49351 11.407 3.94565 11.6765 4.2228L14.6488 7.28568H6.68407C6.30577 7.28568 6 7.60496 6 7.99996C6 8.39495 6.30577 8.71427 6.68407 8.71427H14.6488L11.6765 11.7771C11.407 12.0543 11.4049 12.5064 11.6696 12.7871C11.8037 12.9286 11.9802 13 12.1567 13C12.3305 13 12.5042 12.9314 12.6369 12.7943L16.7962 8.5085C16.9261 8.37423 17 8.19134 17 7.99992C17 7.80857 16.9268 7.62642 16.7962 7.49141Z" fill="white"/>
</svg>
