    <svg
      width="59"
      height="59"
      viewBox="0 0 59 59"
      fill="none"
      xmlns="http://www.w3.org/2000/svg"
    >
      <path
        fill-rule="evenodd"
        clip-rule="evenodd"
        d="M36.5372 48.7342C36.5372 48.8011 36.4412 48.9159 36.3837 48.9254C36.2878 48.935 36.1439 48.8872 36.0863 48.8203C34.9832 47.7112 33.6019 46.5734 32.2014 45.8371C30.6475 45.0149 28.9209 44.6133 27.693 44.183C26.5132 43.7623 23.0887 42.6245 21.7938 42.5671C20.7098 42.5193 18.0528 42.1082 17.4868 41.9839C15.8465 41.6301 14.5899 41.0565 13.0168 40.2055C11.9041 39.6031 10.3213 37.9299 9.88969 37.4614C9.80336 37.3658 8.10552 36.0654 7.21343 35.7021C6.14868 35.2718 3.49161 34.8989 2.38849 34.7077C2.02398 34.6408 1.47722 34.4496 1.51559 34.0289C1.6211 32.6998 1.70743 31.7533 2.08153 30.2426C2.43645 28.8084 2.64748 28.1677 3.05036 27.1351C3.26139 26.5997 3.41487 26.6762 4.08633 26.8483C4.94964 27.0682 10.8106 30.8067 11.5492 31.3804C12.0863 31.8011 12.6811 32.2409 13.3525 32.4704C14.5324 32.8719 18.0623 33.503 18.5899 33.5699C20.47 33.8089 22.0336 34.1149 23.6163 34.8129C24.4508 35.1858 25.3237 35.5109 26.1199 35.9316C27.0504 36.4288 30.4652 38.5036 31.2038 39.0677C32.1151 39.7657 34.1775 41.6493 34.3501 41.8309C34.8201 42.3472 34.8106 42.548 35.271 43.0739C35.2902 43.1313 36.5276 48.1797 36.5372 48.7342Z"
        fill="black"
      />
      <path
        fill-rule="evenodd"
        clip-rule="evenodd"
        d="M0.911261 49.4513C0.748191 49.2505 0.143874 47.3956 0.0671358 45.4451C-0.00960276 43.4755 0.460421 41.7544 0.575529 41.133C0.633083 40.8174 0.767376 40.7696 1.10311 40.8079C1.90886 40.9035 7.27097 42.2994 8.24939 42.6341C8.90167 42.854 9.12229 43.4372 9.35251 43.9344C9.72661 44.7376 10.3021 45.3686 11.0887 45.8563C11.2806 45.9806 11.5108 46.0571 11.7314 46.1527C12.6139 46.5351 13.458 47.0036 14.3789 47.2618C15.9328 47.7016 17.5252 48.0649 19.1846 47.9789C20.2302 47.9215 21.2758 47.6347 22.3117 47.7303C22.8585 47.7781 23.3957 48.237 23.6739 48.3709C24.8441 48.9255 26.0144 49.4991 27.2134 50.0155C27.9328 50.331 28.7002 50.57 29.458 50.8186C30.4844 51.1437 31.5492 51.4114 32.5659 51.7556C33.8033 52.1763 36.259 53.2472 36.777 53.4289C36.8921 53.4671 37.0168 53.5054 37.0935 53.5723C37.1607 53.6392 37.2374 53.7635 37.199 53.8496C37.1703 53.9261 39.8561 58.5633 39.2326 58.5537C38.9544 58.5537 38.7434 58.3243 38.494 58.2095C38.0719 58.0279 36.0096 56.8901 35.3381 56.6128C34.3405 56.1921 33.2662 55.5419 32.211 55.3029C30.8393 54.9874 29.5156 54.7292 28.048 54.9396C27.0312 55.083 26.0336 55.3603 25.0168 55.5132C22.7914 55.8479 20.5659 56.1538 18.3885 55.3029C17.0264 54.7675 15.5779 54.3563 14.3021 53.687C13.0551 53.0368 11.9904 52.1285 10.8393 51.3445C10.2446 50.9429 9.66905 50.5222 9.04555 50.1589C8.83452 50.0346 7.9904 49.6904 7.82733 49.5948C6.47481 48.8107 2.80095 49.4322 2.38848 49.4991C2.21582 49.5278 1.1127 49.6999 0.911261 49.4513Z"
        fill="black"
      />
      <path
        fill-rule="evenodd"
        clip-rule="evenodd"
        d="M43.271 10.9478C43.9616 11.3971 44.5468 14.9062 46.4173 15.6711C47.0983 15.9483 47.8657 17.0479 47.8561 17.6311C47.8273 19.1323 49.3237 24.6779 49.7074 25.8635C49.8417 26.2842 50.0815 28.2347 50.1199 28.3877C50.8777 31.3708 53.036 34.6121 53.199 35.3579C53.6307 37.318 51.7602 39.0773 50.8202 39.89C49.6595 40.8844 48.211 41.3051 46.7146 40.7888C45.6307 40.4159 43.5779 38.4653 43.4149 38.2741C42.8681 37.6622 42.9449 36.8782 42.9544 36.1611C42.964 35.1667 42.6475 34.3348 42.0719 33.5699C41.7746 33.1779 36.6043 28.751 31.8465 27.3455C31.4532 26.963 30.801 25.9782 31.0791 25.7583C31.741 25.2133 33.4389 26.0356 33.554 26.0738C39.5396 27.9479 44.518 33.264 44.8441 33.0823C45.0839 32.958 45.3333 32.5947 45.3333 32.327C45.3429 31.3995 44.988 30.5868 44.3549 29.8697C43.9329 29.3821 42.542 27.269 42.0048 26.7049C41.506 26.1886 40.0288 25.003 39.4532 24.6874C38.9928 24.4388 35.6835 22.7847 35.271 22.6031C34.5324 22.2684 34.2446 18.6447 36.1727 19.8207C37.4772 20.6239 40.4892 22.364 41.9185 22.6795C42.5995 22.8325 43.2038 23.5496 43.482 24.0946C43.7314 24.5823 45.3525 26.4276 46.0528 27.4124C46.5324 28.0913 47.0024 29.4299 47.0312 29.9653C47.0696 30.692 47.1847 31.084 47.7314 31.4186C48.3741 31.8106 49.3333 31.3804 49.3621 30.625C49.3813 30.0992 49.3046 29.535 49.1031 29.057C48.6043 27.8714 47.5012 23.4349 47.223 22.909C46.9832 22.4692 45.6883 20.251 45.4293 19.8207C45.2662 19.5434 45.2086 19.161 45.2374 18.8359C45.3429 17.526 44.1439 17.6311 42.1199 14.1317C41.9089 13.95 41.7362 13.7206 41.5444 13.5293C40.9592 12.9556 42.8297 10.6705 43.271 10.9478Z"
        fill="black"
      />
      <path
        fill-rule="evenodd"
        clip-rule="evenodd"
        d="M21.7362 18.7881C21.0264 18.5682 19.2326 15.8049 18.4077 13.9596C17.5444 12.0186 15.5204 10.2307 14.8297 9.70479C14.6763 9.59005 14.3117 9.48487 14.2926 9.24584C14.2638 8.92075 14.3885 8.61479 14.5611 8.42356C15.3093 7.56304 17.7266 5.09621 20.5372 3.69069C21.0552 3.43254 21.2566 3.43254 21.6691 3.90104C22.1007 4.38867 24.7866 8.16541 25.247 9.62829C26.2062 12.621 26.3405 15.3842 26.7146 16.7133C27.0504 17.8797 28.4221 19.5052 28.8729 20.2796C29.3909 21.1689 30.0144 22.0485 30.3117 23.0333C32.2014 26.4945 36.3357 27.03 37.4676 27.7757C37.8321 28.0148 35.6643 28.8466 35.1175 28.8084C33.3813 28.6745 29.4964 28.3112 27.4724 21.8764C27.0408 20.49 25.6211 19.4096 24.6619 18.9315C23.693 18.463 22.9448 19.1514 21.7362 18.7881Z"
        fill="black"
      />
      <path
        fill-rule="evenodd"
        clip-rule="evenodd"
        d="M5.68824 20.5282C5.29495 20.4613 5.22781 20.1744 5.40047 19.8398C5.96642 18.7498 6.41726 17.9658 7.39567 16.761C7.65467 16.436 8.71941 15.0591 9.78416 15.6806C10.8681 16.3786 11.8945 17.1531 12.9209 17.9275C13.4005 18.2813 14.446 19.2757 14.6091 19.6964C15.0504 20.882 15.789 21.8955 17.0168 22.5648C17.8705 23.0333 18.5995 23.4827 19.434 23.8651C19.8945 24.0755 20.3837 24.1233 20.988 23.9799C22.4173 23.6165 22.5228 23.6643 23.9328 23.999C24.5563 24.1807 25.0647 24.9934 25.4388 25.7774C26.1103 27.1925 25.7554 28.9613 30.4844 30.2617C31.482 30.539 31.4628 31.8202 32.1343 32.566C32.6043 33.0918 33.1703 34.2774 33.7938 34.6981C33.976 34.8224 34.2254 34.8702 34.3981 34.9945C34.5132 35.0806 34.6763 35.2527 34.6187 35.3961C34.542 35.5587 34.2254 35.5969 34.0911 35.5491C33.7842 35.4439 30.9448 33.9619 30.4652 33.6464C29.4197 32.958 25.7938 31.0648 24.9113 30.5294C23.5779 29.7358 22.3501 29.0856 20.7386 29.0856C19.8945 29.0856 19.0312 28.99 18.2062 28.8179C16.7482 28.5215 15.4724 27.8618 14.3501 26.9726C13.9185 26.6284 12.47 25.2515 12.2782 24.8882C11.7122 23.8269 10.8201 23.0429 9.81294 22.3831C8.96882 21.8668 6.44603 20.6621 5.68824 20.5282Z"
        fill="black"
      />
      <path
        fill-rule="evenodd"
        clip-rule="evenodd"
        d="M36.566 1.16649C36.5564 1.79753 36.6139 3.19349 36.6139 4.0827C36.6139 5.59339 36.1919 6.94154 36.1151 8.49048C36.0384 10.1828 36.1247 10.9669 36.6715 12.3533C36.9209 12.7357 36.988 13.1469 36.7674 13.4911C36.1247 14.5141 35.5108 15.0496 35.3573 16.4073C35.1751 17.9849 36.6235 20.6716 36.8058 21.7043C36.8729 22.0963 37.0168 22.3736 36.6907 22.5648C36.2206 22.8421 35.3669 22.603 35.3669 22.603C34.542 22.3258 33.5252 19.8303 33.2662 18.8741C32.9113 17.5738 32.6811 16.2256 32.3741 14.8966C32.048 13.472 30.1679 7.50566 29.9856 6.84593C29.5827 5.35436 28.8921 4.12094 28.0384 3.07876C27.8178 2.81104 27.8273 2.48595 28.1055 2.28516C28.4988 2.01745 28.8921 1.74017 29.3046 1.54894C30.8393 0.831838 33.3909 0.0478067 35.1847 0.0573681C36.8154 0.0860521 36.566 0.898767 36.566 1.16649Z"
        fill="black"
      />
      <path
        fill-rule="evenodd"
        clip-rule="evenodd"
        d="M45.4293 9.1311C45.247 9.35101 43.3573 12.0282 44.2494 12.9843C44.8729 13.6536 43.53 13.9978 42.6283 14.0552C41.6403 14.1221 40.9017 13.0513 41.3525 12.076C41.8513 10.9956 42.9257 7.68733 43.3093 6.57821C43.6739 5.52647 43.8657 4.43647 44.1343 3.3656C44.1918 3.14569 44.4029 2.19911 44.6427 2.14175C44.9017 2.07482 45.0839 2.37122 45.2662 2.51464C45.6019 2.80148 48.3357 4.46516 48.8249 4.752C49.0264 4.86673 49.2278 5.05796 49.2662 5.25875C49.3046 5.44041 48.988 5.55515 48.7962 5.6412C46.7818 6.58778 45.5827 8.94943 45.4293 9.1311Z"
        fill="black"
      />
      <path
        fill-rule="evenodd"
        clip-rule="evenodd"
        d="M42.0624 17.4208C42.0528 17.6503 42.0336 17.8893 42.1007 18.0996C42.2542 18.5681 42.4748 19.008 42.6571 19.4669C42.6955 19.5625 42.7242 19.7346 42.6379 19.8016C42.5228 19.8972 42.2734 19.8111 42.1871 19.7251C41.6211 19.1514 40.9209 18.7881 40.1439 18.8167C39.2998 18.8454 39.0312 18.3291 38.8393 17.7172C38.705 17.2774 38.6955 16.7993 38.6091 16.3403C38.5708 16.1491 38.4844 15.9675 38.4077 15.7667C39.1175 15.2025 40.7194 15.5946 41.0552 15.7953C42.0432 16.3595 42.072 17.1435 42.0624 17.4208Z"
        fill="black"
      />
    </svg>