<svg width="165" height="59" viewBox="0 0 165 59" fill="none" xmlns="http://www.w3.org/2000/svg">
<path fill-rule="evenodd" clip-rule="evenodd" d="M36.5856 48.6919C36.5856 48.7588 36.4895 48.8734 36.4319 48.883C36.3359 48.8925 36.1918 48.8448 36.1342 48.7779C35.0296 47.6698 33.6465 46.5329 32.2441 45.7974C30.6881 44.9758 28.9592 44.5746 27.7298 44.1447C26.5483 43.7243 23.1193 42.5875 21.8227 42.5302C20.7373 42.4824 18.0767 42.0717 17.51 41.9475C15.8675 41.594 14.6093 41.0208 13.034 40.1706C11.9199 39.5688 10.335 37.897 9.9028 37.4289C9.81636 37.3333 8.11627 36.0341 7.223 35.6711C6.15684 35.2412 3.49624 34.8687 2.39166 34.6776C2.02667 34.6107 1.47918 34.4197 1.5176 33.9993C1.62326 32.6714 1.7097 31.7257 2.0843 30.2163C2.43969 28.7834 2.651 28.1433 3.05441 27.1116C3.26572 26.5766 3.4194 26.653 4.09175 26.825C4.95621 27.0447 10.8249 30.7799 11.5645 31.3531C12.1024 31.7735 12.6979 32.2129 13.3702 32.4422C14.5516 32.8434 18.0863 33.4739 18.6146 33.5408C20.4972 33.7796 22.0628 34.0853 23.6476 34.7827C24.4833 35.1552 25.3573 35.48 26.1545 35.9004C27.0862 36.3971 30.5056 38.4702 31.2452 39.0338C32.1577 39.7312 34.2228 41.6131 34.3957 41.7946C34.8663 42.3105 34.8567 42.5111 35.3177 43.0365C35.3369 43.0938 36.576 48.1379 36.5856 48.6919Z" fill="white"/>
<path fill-rule="evenodd" clip-rule="evenodd" d="M0.912482 49.4084C0.749196 49.2078 0.144079 47.3545 0.0672386 45.4057C-0.00960175 43.4378 0.461045 41.7182 0.576306 41.0973C0.633936 40.782 0.768406 40.7342 1.10458 40.7725C1.91141 40.868 7.28062 42.2627 8.26034 42.5971C8.91348 42.8168 9.1344 43.3996 9.36492 43.8963C9.73951 44.6988 10.3158 45.3293 11.1034 45.8165C11.2955 45.9407 11.5261 46.0171 11.747 46.1126C12.6306 46.4947 13.4759 46.9628 14.398 47.2208C15.954 47.6602 17.5484 48.0232 19.2101 47.9373C20.257 47.8799 21.304 47.5933 22.3413 47.6889C22.8888 47.7366 23.4267 48.1952 23.7052 48.3289C24.8771 48.883 26.0489 49.4562 27.2495 49.9721C27.9699 50.2873 28.7383 50.5261 29.4971 50.7745C30.5248 51.0993 31.591 51.3668 32.6091 51.7107C33.8482 52.1311 36.307 53.201 36.8257 53.3825C36.941 53.4207 37.0658 53.4589 37.1427 53.5258C37.2099 53.5927 37.2868 53.7169 37.2483 53.8028C37.2195 53.8793 39.9089 58.5125 39.2846 58.5029C39.0061 58.5029 38.7948 58.2737 38.545 58.159C38.1224 57.9775 36.0573 56.8407 35.385 56.5637C34.386 56.1433 33.3103 55.4937 32.2537 55.2549C30.8802 54.9397 29.5547 54.6817 28.0851 54.8919C27.067 55.0352 26.0681 55.3122 25.0499 55.4651C22.8216 55.7994 20.5932 56.1051 18.4129 55.2549C17.0489 54.7199 15.5986 54.3091 14.3211 53.6404C13.0725 52.9908 12.0063 52.0833 10.8537 51.2999C10.2582 50.8987 9.68188 50.4784 9.05756 50.1154C8.84624 49.9912 8.001 49.6473 7.83772 49.5517C6.4834 48.7684 2.80467 49.3893 2.39166 49.4562C2.21877 49.4849 1.11419 49.6568 0.912482 49.4084Z" fill="white"/>
<path fill-rule="evenodd" clip-rule="evenodd" d="M43.3283 10.9382C44.0199 11.3872 44.6058 14.8932 46.4788 15.6575C47.1608 15.9345 47.9292 17.0331 47.9196 17.6158C47.8907 19.1157 49.3891 24.6564 49.7733 25.841C49.9078 26.2614 50.1479 28.2102 50.1863 28.363C50.9451 31.3436 53.1063 34.5821 53.2696 35.3272C53.7018 37.2856 51.8288 39.0434 50.8875 39.8554C49.7253 40.8489 48.2749 41.2692 46.7766 40.7534C45.6912 40.3808 43.6357 38.432 43.4724 38.2409C42.9249 37.6295 43.0018 36.8462 43.0114 36.1297C43.021 35.1362 42.704 34.305 42.1277 33.5408C41.83 33.1491 36.6528 28.7261 31.8887 27.3218C31.4949 26.9396 30.8418 25.9557 31.1203 25.7359C31.7831 25.1914 33.4832 26.013 33.5984 26.0512C39.592 27.9236 44.577 33.2351 44.9036 33.0536C45.1437 32.9294 45.3934 32.5664 45.3934 32.2989C45.403 31.3722 45.0476 30.5602 44.4137 29.8438C43.9911 29.3566 42.5984 27.2453 42.0605 26.6817C41.561 26.1658 40.0818 24.9812 39.5055 24.666C39.0445 24.4176 35.7308 22.7649 35.3177 22.5834C34.5782 22.2491 34.29 18.6285 36.2206 19.8035C37.5269 20.6059 40.5429 22.3446 41.974 22.6599C42.656 22.8127 43.2611 23.5292 43.5397 24.0737C43.7894 24.5609 45.4126 26.4047 46.1138 27.3886C46.5941 28.0669 47.0647 29.4043 47.0935 29.9393C47.1319 30.6653 47.2472 31.057 47.7947 31.3914C48.4382 31.783 49.3987 31.3531 49.4275 30.5984C49.4468 30.073 49.3699 29.5094 49.1682 29.0317C48.6687 27.8472 47.5642 23.4145 47.2856 22.8891C47.0455 22.4497 45.7488 20.2334 45.4895 19.8035C45.3262 19.5265 45.2686 19.1443 45.2974 18.8195C45.403 17.5108 44.2024 17.6158 42.1757 14.1194C41.9644 13.9379 41.7915 13.7086 41.5994 13.5176C41.0135 12.9444 42.8865 10.6612 43.3283 10.9382Z" fill="white"/>
<path fill-rule="evenodd" clip-rule="evenodd" d="M21.765 18.7718C21.0543 18.5521 19.2581 15.7912 18.4321 13.9475C17.5676 12.0082 15.541 10.2218 14.8494 9.69637C14.6957 9.58173 14.3307 9.47665 14.3115 9.23782C14.2827 8.91302 14.4076 8.60732 14.5805 8.41626C15.3297 7.55648 17.7501 5.09179 20.5644 3.68749C21.0831 3.42956 21.2848 3.42956 21.6978 3.89766C22.13 4.38486 24.8194 8.15832 25.2805 9.61994C26.241 12.6101 26.3754 15.3709 26.75 16.6988C27.0862 17.8642 28.4597 19.4883 28.9112 20.2621C29.4298 21.1505 30.0542 22.0294 30.3519 23.0133C32.2441 26.4715 36.3839 27.0065 37.5173 27.7517C37.8823 27.9905 35.7115 28.8216 35.1641 28.7834C33.4255 28.6496 29.5355 28.2866 27.5088 21.8574C27.0766 20.4722 25.6551 19.3927 24.6946 18.9151C23.7245 18.447 22.9753 19.1348 21.765 18.7718Z" fill="white"/>
<path fill-rule="evenodd" clip-rule="evenodd" d="M5.69579 20.5104C5.30198 20.4435 5.23475 20.157 5.40764 19.8226C5.97434 18.7335 6.42577 17.9502 7.40549 16.7465C7.66482 16.4217 8.73098 15.0461 9.79714 15.667C10.8825 16.3644 11.9102 17.1382 12.938 17.912C13.4182 18.2654 14.4652 19.259 14.6285 19.6793C15.0703 20.8639 15.8099 21.8765 17.0393 22.5452C17.8942 23.0133 18.6242 23.4623 19.4598 23.8444C19.9209 24.0546 20.4107 24.1024 21.0158 23.9591C22.447 23.5961 22.5526 23.6438 23.9646 23.9782C24.5889 24.1597 25.098 24.9717 25.4726 25.755C26.1449 27.1689 25.7895 28.9362 30.5248 30.2354C31.5237 30.5125 31.5045 31.7926 32.1769 32.5377C32.6475 33.0631 33.2142 34.2477 33.8386 34.6681C34.021 34.7922 34.2708 34.84 34.4437 34.9642C34.5589 35.0502 34.7222 35.2221 34.6646 35.3654C34.5877 35.5278 34.2708 35.566 34.1363 35.5183C33.8289 35.4132 30.9859 33.9325 30.5056 33.6172C29.4587 32.9294 25.828 31.0379 24.9443 30.5029C23.6092 29.71 22.3797 29.0604 20.7661 29.0604C19.9209 29.0604 19.0564 28.9649 18.2304 28.7929C16.7704 28.4968 15.4929 27.8376 14.3691 26.9492C13.9369 26.6053 12.4866 25.2296 12.2945 24.8666C11.7278 23.8062 10.8345 23.0229 9.82596 22.3637C8.98071 21.8478 6.45459 20.6442 5.69579 20.5104Z" fill="white"/>
<path fill-rule="evenodd" clip-rule="evenodd" d="M36.6144 1.16546C36.6048 1.79596 36.6624 3.19071 36.6624 4.07915C36.6624 5.58853 36.2398 6.93551 36.163 8.48311C36.0861 10.174 36.1726 10.9574 36.7201 12.3425C36.9698 12.7247 37.037 13.1354 36.8161 13.4794C36.1726 14.5015 35.5579 15.0365 35.4042 16.393C35.2217 17.9693 36.672 20.6537 36.8545 21.6854C36.9218 22.0771 37.0659 22.3542 36.7393 22.5452C36.2686 22.8223 35.4138 22.5834 35.4138 22.5834C34.5878 22.3064 33.5696 19.813 33.3103 18.8577C32.9549 17.5585 32.7244 16.2115 32.417 14.8837C32.0904 13.4603 30.2079 7.49914 30.0254 6.83998C29.6219 5.3497 28.9304 4.11736 28.0755 3.07607C27.8546 2.80859 27.8642 2.48378 28.1428 2.28317C28.5366 2.01568 28.9304 1.73865 29.3434 1.54758C30.8802 0.831105 33.4351 0.0477539 35.2313 0.057307C36.8641 0.0859662 36.6144 0.897976 36.6144 1.16546Z" fill="white"/>
<path fill-rule="evenodd" clip-rule="evenodd" d="M45.4895 9.12316C45.307 9.34288 43.4148 12.0177 44.308 12.973C44.9324 13.6418 43.5877 13.9857 42.6848 14.043C41.6955 14.1099 40.9559 13.0399 41.4073 12.0655C41.9068 10.986 42.9825 7.68065 43.3667 6.5725C43.7317 5.52166 43.9238 4.43261 44.1928 3.36267C44.2504 3.14295 44.4617 2.19719 44.7018 2.13988C44.9612 2.073 45.1437 2.36915 45.3262 2.51244C45.6624 2.79904 48.3998 4.46127 48.8896 4.74786C49.0914 4.8625 49.2931 5.05356 49.3315 5.25417C49.3699 5.43568 49.0529 5.55032 48.8608 5.6363C46.8438 6.58205 45.6431 8.94166 45.4895 9.12316Z" fill="white"/>
<path fill-rule="evenodd" clip-rule="evenodd" d="M42.1181 17.4057C42.1085 17.635 42.0893 17.8738 42.1565 18.084C42.3102 18.5521 42.5311 18.9915 42.7136 19.45C42.752 19.5456 42.7809 19.7175 42.6944 19.7844C42.5791 19.8799 42.3294 19.794 42.243 19.708C41.6763 19.1348 40.9751 18.7718 40.1971 18.8004C39.3519 18.8291 39.0829 18.3132 38.8908 17.7018C38.7563 17.2624 38.7467 16.7847 38.6603 16.3262C38.6219 16.1351 38.5354 15.9536 38.4586 15.753C39.1694 15.1894 40.7734 15.5811 41.1096 15.7817C42.0989 16.3453 42.1277 17.1287 42.1181 17.4057Z" fill="white"/>
<path fill-rule="evenodd" clip-rule="evenodd" d="M76.8617 51.4088L77.4265 52.2447C77.034 52.7539 76.5075 53.1478 75.8469 53.4264C75.1864 53.7051 74.478 53.8396 73.7217 53.8396C72.1996 53.8396 70.9456 53.3688 69.9691 52.4368C69.0118 51.5049 68.5332 50.2654 68.5332 48.7186C68.5332 47.2774 69.0022 46.0668 69.9308 45.0868C70.8786 44.0971 72.0369 43.5975 73.425 43.5975C75.1098 43.5975 76.383 44.0107 77.2446 44.8273L76.6989 45.7497C75.9235 45.0387 74.8992 44.6736 73.5973 44.6736C72.5538 44.6736 71.6444 45.0579 70.869 45.8362C70.1127 46.5952 69.7394 47.556 69.7394 48.7282C69.7394 49.958 70.1223 50.938 70.8977 51.6874C71.6635 52.4176 72.64 52.7827 73.8175 52.7827C75.0715 52.7635 76.0862 52.3119 76.8617 51.4088Z" fill="white"/>
<path fill-rule="evenodd" clip-rule="evenodd" d="M80.1356 52.3984C81.0929 53.3592 82.3278 53.8396 83.8404 53.8396C85.3529 53.8396 86.5878 53.3592 87.5451 52.3984C88.5024 51.428 88.981 50.2078 88.981 48.7186C88.981 47.2293 88.5024 45.9995 87.5451 45.0387C86.5878 44.0779 85.3529 43.5975 83.8404 43.5975C82.3278 43.5975 81.0929 44.0779 80.1356 45.0387C79.1783 46.0091 78.6997 47.2293 78.6997 48.7186C78.6997 50.2078 79.1783 51.4376 80.1356 52.3984ZM86.674 51.649C85.9656 52.3888 85.0178 52.7635 83.8404 52.7635C82.6916 52.7635 81.7439 52.3888 81.0068 51.6298C80.2696 50.8707 79.8963 49.9003 79.8963 48.7186C79.8963 47.5368 80.2696 46.5664 81.0068 45.8074C81.763 45.0579 82.7108 44.6736 83.8404 44.6736C84.9891 44.6736 85.9368 45.0483 86.674 45.8074C87.4111 46.5664 87.7844 47.5368 87.7844 48.7186C87.7844 49.9099 87.4111 50.8899 86.674 51.649Z" fill="white"/>
<path fill-rule="evenodd" clip-rule="evenodd" d="M92.8868 53.6378H91.7572V43.7897H92.8868V45.1732C93.2889 44.7217 93.825 44.347 94.4664 44.0587C95.1173 43.7705 95.7683 43.6168 96.4192 43.6168C97.7882 43.6168 98.8125 43.9723 99.4922 44.6928C100.172 45.4038 100.516 46.5184 100.516 48.0172V53.6378H99.3869V48.2286C99.3869 45.865 98.3147 44.6832 96.1608 44.6832C95.5385 44.6832 94.9259 44.8274 94.3323 45.106C93.7388 45.3942 93.2602 45.7497 92.8964 46.1917L92.8868 53.6378Z" fill="white"/>
<path fill-rule="evenodd" clip-rule="evenodd" d="M108.855 51.0629C108.855 50.6113 108.673 50.2462 108.299 49.9676C107.926 49.689 107.476 49.468 106.949 49.3142C106.423 49.1509 105.887 48.978 105.351 48.7762C104.815 48.584 104.355 48.267 103.991 47.8346C103.618 47.4023 103.436 46.8642 103.436 46.2013C103.436 45.4134 103.723 44.7793 104.307 44.3085C104.891 43.8377 105.648 43.5975 106.595 43.5975C107.945 43.5975 108.969 43.9626 109.668 44.6928L109.19 45.5479C108.519 44.9234 107.667 44.6064 106.614 44.6064C106.03 44.6064 105.561 44.7601 105.188 45.0579C104.815 45.3558 104.633 45.7305 104.633 46.1821C104.633 46.6529 104.815 47.0276 105.188 47.335C105.561 47.6329 106.011 47.8635 106.538 48.0364C107.064 48.1997 107.6 48.3823 108.137 48.5744C108.673 48.7666 109.132 49.0644 109.496 49.468C109.869 49.8811 110.051 50.3903 110.051 51.0245C110.051 51.918 109.716 52.6098 109.056 53.0998C108.395 53.5994 107.543 53.8396 106.519 53.8396C105.877 53.8396 105.207 53.6955 104.508 53.3976C103.857 53.119 103.407 52.7923 103.159 52.408L103.79 51.6682C104.068 52.0045 104.48 52.2831 105.035 52.5041C105.6 52.7251 106.136 52.8307 106.653 52.8307C107.294 52.8307 107.821 52.677 108.232 52.36C108.644 52.0525 108.855 51.6105 108.855 51.0629Z" fill="white"/>
<path fill-rule="evenodd" clip-rule="evenodd" d="M120.151 43.7897H121.28V53.6378H120.151V52.0813C119.739 52.5906 119.203 53.0133 118.523 53.34C117.844 53.6666 117.145 53.83 116.417 53.83C113.919 53.83 112.665 52.3888 112.665 49.4968V43.7801H113.794V49.2566C113.794 51.5913 114.809 52.7635 116.829 52.7635C117.441 52.7635 118.054 52.6002 118.676 52.2735C119.299 51.9468 119.787 51.5433 120.151 51.0629V43.7897Z" fill="white"/>
<path fill-rule="evenodd" clip-rule="evenodd" d="M124.755 51.1013V38.3228H125.885V50.496C125.885 51.2743 125.99 51.8315 126.21 52.1774C126.43 52.5233 126.794 52.7059 127.302 52.7059C127.799 52.7059 128.249 52.5425 128.68 52.2255L128.967 53.119C128.403 53.561 127.713 53.7723 126.9 53.7723C125.464 53.7723 124.755 52.8884 124.755 51.1013Z" fill="white"/>
<path fill-rule="evenodd" clip-rule="evenodd" d="M130.681 49.9003V41.061H131.811V43.7993H135.755V44.8754H131.811V49.737C131.811 51.7258 132.548 52.7154 134.012 52.7154C134.596 52.7154 135.113 52.5425 135.582 52.187L135.956 53.0805C135.362 53.5513 134.625 53.7819 133.754 53.7819C131.705 53.7723 130.681 52.4849 130.681 49.9003Z" fill="white"/>
<path fill-rule="evenodd" clip-rule="evenodd" d="M139.076 39.4373C138.914 39.5718 138.837 39.7448 138.837 39.9657C138.837 40.2059 138.914 40.4077 139.067 40.5614C139.22 40.7055 139.411 40.7824 139.641 40.7824C139.861 40.7824 140.043 40.7055 140.177 40.5614C140.321 40.4077 140.388 40.2155 140.388 39.9657C140.388 39.7544 140.311 39.5814 140.158 39.4469C140.005 39.3028 139.833 39.2355 139.641 39.2355C139.421 39.2355 139.239 39.3028 139.076 39.4373ZM139.038 53.6378H140.168V43.7897H139.038V53.6378Z" fill="white"/>
<path fill-rule="evenodd" clip-rule="evenodd" d="M145.318 53.6378H144.188V43.7897H145.318V45.1732C145.72 44.7217 146.256 44.347 146.898 44.0587C147.548 43.7705 148.199 43.6168 148.85 43.6168C150.219 43.6168 151.244 43.9723 151.923 44.6928C152.603 45.4038 152.948 46.5184 152.948 48.0172V53.6378H151.818V48.2286C151.818 45.865 150.746 44.6832 148.592 44.6832C147.97 44.6832 147.357 44.8274 146.763 45.106C146.17 45.3942 145.691 45.7497 145.328 46.1917L145.318 53.6378Z" fill="white"/>
<path fill-rule="evenodd" clip-rule="evenodd" d="M154.786 55.0886C154.786 54.3488 155.044 53.7147 155.571 53.2054C156.097 52.6962 156.834 52.3407 157.792 52.1294C157.571 51.8699 157.466 51.5529 157.466 51.1878C157.466 50.8227 157.591 50.496 157.839 50.1982C157.198 49.9195 156.7 49.5064 156.336 48.9491C155.973 48.3919 155.791 47.7674 155.791 47.066C155.791 46.0572 156.145 45.2309 156.863 44.5679C157.571 43.9146 158.51 43.5783 159.677 43.5783C160.606 43.5783 161.429 43.8281 162.138 44.3181H162.157L164.952 43.5783V44.6544L162.971 45.154C163.363 45.7497 163.564 46.3838 163.564 47.0564C163.564 48.0364 163.2 48.8627 162.473 49.5544C161.745 50.2078 160.817 50.544 159.677 50.544C159.266 50.544 158.94 50.5152 158.691 50.4576C158.557 50.6497 158.49 50.8899 158.49 51.1782C158.49 51.5144 158.586 51.7739 158.778 51.966C159.014 51.9537 159.206 51.9432 159.352 51.9351C159.549 51.9243 159.664 51.918 159.697 51.918C161.19 51.918 162.387 52.1966 163.277 52.7539C164.167 53.3111 164.607 54.0798 164.607 55.0694C164.607 56.0494 164.167 56.8084 163.277 57.3561C162.387 57.9037 161.2 58.1727 159.697 58.1727C158.184 58.1727 156.987 57.9037 156.107 57.3657C155.226 56.8468 154.786 56.0782 154.786 55.0886ZM155.934 55.0886C155.934 55.7323 156.269 56.2319 156.94 56.597C157.619 56.9717 158.538 57.1639 159.687 57.1639C160.817 57.1639 161.726 56.9717 162.415 56.597C163.095 56.2127 163.44 55.7131 163.44 55.0886C163.44 54.4449 163.105 53.9356 162.425 53.5417C161.745 53.1478 160.836 52.9652 159.687 52.9652C158.557 52.9652 157.648 53.1574 156.959 53.5321C156.279 53.9164 155.934 54.4353 155.934 55.0886ZM156.94 47.0756C156.94 46.3742 157.198 45.7977 157.705 45.3269C158.241 44.8562 158.892 44.6256 159.668 44.6256C160.453 44.6256 161.104 44.8562 161.611 45.3269C162.138 45.7881 162.396 46.3742 162.396 47.0756C162.396 47.777 162.138 48.3534 161.63 48.8242C161.123 49.295 160.472 49.5256 159.668 49.5256C158.864 49.5256 158.213 49.295 157.705 48.8242C157.198 48.3631 156.94 47.777 156.94 47.0756Z" fill="white"/>
<path fill-rule="evenodd" clip-rule="evenodd" d="M71.3372 11.828C71.3372 9.36447 70.3324 8.00857 68.323 7.7794L67.481 7.67436C67.2131 7.64572 67.0791 7.47384 67.0791 7.14919C67.0791 6.78634 67.2513 6.60492 67.5958 6.60492L68.0551 6.62402L69.433 6.70041C70.5717 6.74815 71.2989 6.77679 71.6242 6.77679C72.5045 6.77679 74.1216 6.67176 76.466 6.46169C77.9108 6.32801 79.1356 6.26117 80.1308 6.26117C82.743 6.26117 84.8386 6.82454 86.4078 7.94173C87.9866 9.05891 88.7713 10.558 88.7713 12.42C88.7713 14.5685 87.7857 16.058 85.8241 16.9079C85.3744 17.1084 85.1352 17.2707 85.1256 17.4044C85.116 17.624 85.3553 17.7672 85.8433 17.8436C87.3743 18.111 88.5895 18.7794 89.4794 19.8488C90.3692 20.9183 90.8094 22.2455 90.8094 23.8402C90.8094 26.256 89.9961 28.1752 88.3694 29.5884C86.7427 31.0016 84.5419 31.7082 81.7766 31.7082L78.0448 31.5936L75.1742 31.5363C73.337 31.5363 71.739 31.6127 70.3899 31.756C69.9688 31.8037 69.5765 31.8323 69.2129 31.8323C68.8493 31.8323 68.6579 31.67 68.6579 31.3454C68.6579 31.0685 68.8206 30.9061 69.1555 30.8393C70.6099 30.591 71.3467 29.3306 71.3467 27.0485V11.828H71.3372ZM75.5665 10.2334V15.5042C75.5665 16.2299 75.7387 16.7264 76.0832 17.0225C76.4277 17.3089 77.0305 17.4521 77.8821 17.4521L80.4178 17.5094L81.5565 17.4521C83.652 17.1943 84.7046 15.9435 84.7046 13.69C84.7046 11.8662 84.1209 10.3957 82.9535 9.27853C81.7861 8.16134 80.2552 7.59798 78.351 7.59798C77.2506 7.59798 76.5042 7.7794 76.1215 8.14225C75.7579 8.49554 75.5665 9.19259 75.5665 10.2334ZM75.5665 25.5016V22.4556C75.5665 20.8992 75.6813 19.9157 75.911 19.486C76.1406 19.0659 76.7052 18.8558 77.5855 18.8558C79.4705 18.8558 81.1546 19.0468 82.6378 19.4287C85.2022 20.0876 86.4844 21.8541 86.4844 24.7282C86.4844 26.1891 86.0921 27.4495 85.3074 28.4999C84.3506 29.7603 82.5612 30.3905 79.949 30.3905C77.2984 30.3905 75.8918 29.512 75.7483 27.7551L75.6239 26.1987L75.5665 25.5016Z" fill="white"/>
<path fill-rule="evenodd" clip-rule="evenodd" d="M107.277 7.03461C106.033 6.58583 104.942 6.35666 104.024 6.35666C102.321 6.35666 100.895 6.89138 99.7561 7.95128C98.6174 9.02072 98.0433 10.3575 98.0433 11.9617C98.0433 13.0025 98.206 13.9096 98.5409 14.6926C98.6461 14.9409 98.7035 15.1318 98.7035 15.2655C98.7035 15.5424 98.4261 15.8002 97.8615 16.058C96.5315 16.6692 95.4598 17.6145 94.6656 18.8844C93.8714 20.1544 93.4695 21.5676 93.4695 23.1049C93.4695 25.7403 94.4551 27.8697 96.4262 29.5025C98.3878 31.1353 100.952 31.9565 104.119 31.9565C106.54 31.9565 108.693 31.5459 110.578 30.7247L112.234 29.9895C112.569 29.8462 112.827 29.7699 113.028 29.7699C113.2 29.7699 113.468 29.8558 113.822 30.0277C116.023 31.078 118.013 31.6032 119.802 31.6032C120.903 31.6032 122.128 31.3645 123.467 30.8775C124.807 30.3905 125.496 29.9417 125.534 29.5311C125.544 29.302 125.4 29.1874 125.094 29.1874C125.008 29.1874 124.912 29.1969 124.797 29.2256L123.745 29.5216C123.362 29.6171 122.903 29.6648 122.348 29.6648C121.161 29.6648 119.822 29.2351 118.348 28.3758C116.874 27.5164 116.119 26.7334 116.08 26.0173C116.071 25.7976 116.386 24.9478 117.037 23.4678C117.697 21.9591 118.032 20.6796 118.032 19.6006C118.032 19.0754 118.08 18.7317 118.185 18.5693C118.291 18.407 118.568 18.2447 119.008 18.1015C119.286 17.9964 119.429 17.8341 119.429 17.6145C119.429 17.2803 119.238 17.1084 118.855 17.1084C118.74 17.1084 118.606 17.1179 118.472 17.1466L117.736 17.2707C117.439 17.3185 116.827 17.3471 115.889 17.3471C115.095 17.3471 114.061 17.3089 112.769 17.223C112.751 17.2222 112.733 17.2214 112.714 17.2207C112.506 17.212 112.313 17.2039 112.128 17.2039C111.793 17.2039 111.631 17.3471 111.631 17.6336C111.631 17.9582 112.09 18.1683 113.009 18.2542C114.128 18.3402 114.903 18.6362 115.353 19.1327C115.803 19.6388 116.023 20.4695 116.023 21.6249C116.023 22.4079 115.841 23.21 115.477 24.0407C115.114 24.8714 114.75 25.2916 114.387 25.3202C113.812 25.3584 111.86 23.802 108.531 20.6605C106.263 18.5216 104.493 16.5164 103.23 14.6353C101.957 12.7542 101.325 11.2169 101.325 10.0042C101.325 9.30718 101.593 8.71517 102.139 8.22819C102.684 7.74121 103.344 7.49294 104.129 7.49294C105.392 7.49294 106.579 8.00857 107.698 9.03027C108.818 10.052 109.593 11.341 110.023 12.8879C110.186 13.4608 110.425 13.7473 110.741 13.7473C111.057 13.7473 111.219 13.6136 111.219 13.3462C111.219 13.2699 111.191 13.1553 111.143 13.012C111.057 12.7924 110.942 12.2195 110.808 11.3124C110.674 10.4053 110.607 9.78461 110.607 9.45041C110.607 9.36447 110.626 9.04937 110.664 8.49555C110.666 8.45102 110.668 8.40772 110.669 8.36581C110.677 8.17408 110.684 8.01152 110.684 7.89399C110.684 7.32107 110.54 7.03461 110.243 7.03461C110.129 7.03461 110.033 7.0728 109.947 7.1301L109.545 7.40701C109.401 7.50249 109.229 7.55024 109.047 7.55024C108.837 7.55024 108.244 7.37836 107.277 7.03461ZM97.517 17.3758C98.2634 16.7551 98.7801 16.4495 99.0767 16.4782C99.3829 16.4973 99.7465 16.8888 100.168 17.6431C100.971 19.0372 102.349 20.6891 104.311 22.5893C106.272 24.4895 108.31 26.1509 110.435 27.5737C111.076 27.9938 111.392 28.3567 111.392 28.6527C111.392 29.0251 111.028 29.3497 110.301 29.6266C109.583 29.9035 108.722 30.0468 107.727 30.0468C106.062 30.0468 104.435 29.6266 102.856 28.7863C101.278 27.9461 99.9188 26.7811 98.7801 25.282C97.23 23.2673 96.4262 21.453 96.3497 19.8202C96.3018 18.8653 96.6941 18.0537 97.517 17.3758Z" fill="white"/>
<path fill-rule="evenodd" clip-rule="evenodd" d="M149.815 6.2802C150.083 6.27069 150.495 6.28972 151.051 6.3373C152.469 6.47054 153.724 6.53716 154.835 6.53716C155.966 6.53716 156.962 6.45151 157.824 6.2802L157.968 6.26117C158.236 6.26117 158.371 6.41344 158.371 6.70846C158.371 6.98445 158.169 7.18431 157.777 7.32706C157.068 7.5745 156.493 7.93614 156.071 8.43102C155.65 8.9259 155.238 9.67773 154.845 10.6865L153.762 13.3417L152.086 17.4721C150.811 20.6126 150.026 22.5446 149.748 23.2678C148.617 26.1419 147.899 27.9311 147.592 28.6259C146.893 30.1581 146.49 31.0907 146.376 31.4048C146.213 31.833 145.964 32.0424 145.628 32.0424C145.216 32.0424 144.91 31.7759 144.699 31.2525C144.622 31.0622 144.335 30.3389 143.817 29.0922C141.911 24.5146 140.57 21.0504 139.813 18.6807C139.65 18.1573 139.468 17.9003 139.257 17.9098C139.008 17.9194 138.721 18.3762 138.376 19.2803C137.992 20.27 137.207 22.0402 136.019 24.6002C134.831 27.1603 133.959 28.9494 133.403 29.9582C133.173 30.4055 133.02 30.7196 132.943 30.8909C132.608 31.6427 132.234 32.0234 131.813 32.0234C131.401 32.0234 131.075 31.6142 130.826 30.7957C130.73 30.4817 130.548 30.0153 130.27 29.4062C128.603 25.5995 126.994 21.5072 125.461 17.1199C124.426 14.1983 123.89 12.6565 123.842 12.5138L122.845 10.0299C122.184 8.3644 121.408 7.48885 120.527 7.41271C120.22 7.38416 120.067 7.22238 120.067 6.90832C120.067 6.57523 120.259 6.40392 120.642 6.40392C120.728 6.40392 121.178 6.42296 122.012 6.46102L123.861 6.55619C124.627 6.59426 125.25 6.61329 125.739 6.61329C126.591 6.61329 127.578 6.56571 128.709 6.47054L129.025 6.45151C129.446 6.45151 129.648 6.62281 129.648 6.9559C129.648 7.27948 129.427 7.44126 128.987 7.44126C127.894 7.44126 127.348 7.95518 127.348 8.99252C127.348 9.56353 127.904 11.4098 129.025 14.5123L130.826 19.4992L131.947 22.7539L132.57 24.4765C132.876 25.352 133.164 25.7898 133.432 25.7898C133.748 25.7898 134.17 25.1903 134.687 23.9816C134.725 23.8864 135.195 22.9157 136.086 21.079C136.392 20.4604 136.871 19.423 137.504 17.9765C137.849 17.1866 138.146 16.5204 138.385 15.9874C138.481 15.7781 138.529 15.6258 138.529 15.5306C138.529 15.4164 138.481 15.2546 138.395 15.0357C138.184 14.5504 137.877 13.7414 137.494 12.628C136.871 10.8007 136.277 9.48739 135.722 8.69749C135.166 7.90759 134.505 7.45078 133.739 7.32706C133.403 7.26044 133.24 7.08914 133.24 6.80363C133.24 6.48006 133.47 6.31827 133.94 6.31827C134.208 6.31827 134.505 6.32779 134.821 6.35634C136.546 6.49909 137.561 6.57523 137.868 6.57523C139.976 6.57523 141.192 6.54668 141.537 6.49909C142.074 6.44199 142.457 6.40392 142.658 6.38489C142.974 6.37537 143.137 6.57523 143.137 6.98445C143.137 7.18431 143.003 7.32706 142.735 7.41271L142.16 7.59353C141.413 7.84097 141.039 8.35488 141.039 9.14479C141.039 9.91565 141.681 12.0284 142.955 15.5021L144.871 20.7268L145.667 22.8872C145.887 23.4867 146.031 23.8864 146.107 24.0958C146.385 24.9999 146.692 25.4377 147.008 25.4282C147.314 25.4187 147.631 24.9523 147.947 24.0387C148.023 23.8198 148.397 22.9157 149.068 21.3169C149.365 20.6126 149.863 19.2898 150.562 17.3674C150.917 16.4062 151.386 15.1595 151.961 13.6368C152.565 12.057 152.862 10.9149 152.862 10.2202C152.862 9.34464 152.651 8.70701 152.22 8.29778C151.789 7.89807 150.965 7.56498 149.748 7.30803C149.393 7.23189 149.231 7.07962 149.25 6.8417C149.326 6.48006 149.499 6.28972 149.815 6.2802Z" fill="white"/>
</svg>
