<svg width="22" height="18" viewBox="0 0 22 18" fill="none" xmlns="http://www.w3.org/2000/svg">
<path fill-rule="evenodd" clip-rule="evenodd" d="M19.8409 17.3067C20.3335 17.3067 20.7585 17.1423 21.12 16.8176L14.9231 10.56C14.7761 10.6682 14.6291 10.7725 14.494 10.8727C14.0293 11.2174 13.6519 11.486 13.3659 11.6784C13.0759 11.8708 12.6906 12.0673 12.2139 12.2717C11.7332 12.4722 11.2843 12.5724 10.8712 12.5724H10.8593H10.8474C10.4303 12.5724 9.98537 12.4722 9.50471 12.2717C9.02405 12.0713 8.63872 11.8749 8.35271 11.6784C8.06273 11.486 7.68535 11.2174 7.22455 10.8727C7.09346 10.7765 6.95045 10.6722 6.79553 10.56L0.58667 16.8176C0.948158 17.1423 1.37718 17.3067 1.86578 17.3067H19.8409Z" fill="#37CE9A"/>
<path fill-rule="evenodd" clip-rule="evenodd" d="M1.25653 6.62904C0.782293 6.32063 0.3648 5.96873 0 5.57333V14.96L5.57333 9.52333C4.45867 8.76021 3.02379 7.79941 1.25653 6.62904Z" fill="#37CE9A"/>
<path fill-rule="evenodd" clip-rule="evenodd" d="M20.7556 6.62904C19.0573 7.748 17.6183 8.71277 16.4267 9.52333L22 14.96V5.57333C21.6433 5.96082 21.2258 6.31272 20.7556 6.62904Z" fill="#37CE9A"/>
<path fill-rule="evenodd" clip-rule="evenodd" d="M20.0276 0H1.96443C1.33358 0 0.850454 0.214437 0.511071 0.647356C0.171688 1.07623 0 1.61839 0 2.2617C0 2.78363 0.223593 3.35007 0.674773 3.96101C1.12595 4.57195 1.60508 5.04938 2.11216 5.39733C2.39165 5.59559 3.23013 6.1863 4.62759 7.16947C5.38221 7.69949 6.04102 8.16074 6.60399 8.56129C7.08711 8.90115 7.49837 9.19651 7.84174 9.43926C7.88167 9.46759 7.94156 9.51209 8.02541 9.57278C8.11325 9.63752 8.22505 9.71844 8.36479 9.81959C8.6323 10.0138 8.85191 10.1716 9.02759 10.293C9.20327 10.4143 9.41488 10.5479 9.66642 10.6976C9.91397 10.8473 10.1495 10.9606 10.3731 11.0334C10.5927 11.1062 10.8004 11.1467 10.988 11.1467H11H11.012C11.1996 11.1467 11.4033 11.1103 11.6269 11.0334C11.8465 10.9606 12.082 10.8473 12.3336 10.6976C12.5811 10.5479 12.7967 10.4143 12.9724 10.293C13.1481 10.1716 13.3677 10.0138 13.6352 9.81959C13.775 9.71844 13.8868 9.63752 13.9746 9.57278C14.0584 9.51209 14.1183 9.46759 14.1583 9.43926C14.4258 9.2491 14.841 8.95779 15.4 8.56533C16.4181 7.8492 17.9154 6.7932 19.8998 5.39733C20.4987 4.97655 20.9978 4.46271 21.3971 3.86795C21.7964 3.2732 22 2.64607 22 1.99062C22 1.44441 21.8044 0.97508 21.4171 0.586667C21.0218 0.194207 20.5586 0 20.0276 0Z" fill="#37CE9A"/>
</svg>
