<svg width="22" height="23" viewBox="0 0 22 23" fill="none" xmlns="http://www.w3.org/2000/svg">
<path fill-rule="evenodd" clip-rule="evenodd" d="M10.4954 13.644C8.61837 12.1101 7.36699 10.1927 6.70094 9.12293L6.21653 8.19449C6.39818 8.01284 7.68993 6.6 8.25506 5.85321C8.96149 4.90458 7.93213 4.03669 7.93213 4.03669C7.93213 4.03669 5.02571 1.13027 4.37984 0.544951C3.71378 -0.0403705 2.94681 0.282565 2.94681 0.282565C1.55415 1.19082 0.12112 1.95779 0.0202026 5.73211C0.0202026 9.24403 2.68442 12.8771 5.59084 15.7027C8.47708 18.8716 12.4532 22.0605 16.3083 22.0605C20.0624 21.9798 20.8496 20.5266 21.7578 19.1339C21.7578 19.1339 22.0808 18.367 21.4954 17.7009C20.9101 17.055 18.0037 14.1284 18.0037 14.1284C18.0037 14.1284 17.1358 13.0991 16.1872 13.8055C15.4808 14.3303 14.189 15.5211 13.8863 15.8037C13.8863 15.8238 11.7468 14.6734 10.4954 13.644Z" fill="#37CE9A"/>
</svg>
