<svg width="62" height="57" viewBox="0 0 62 57" fill="none" xmlns="http://www.w3.org/2000/svg">
<path fill-rule="evenodd" clip-rule="evenodd" d="M54.25 10.3636V7.77273C54.25 3.48596 50.7742 0 46.5 0H7.75C3.47577 0 0 3.48596 0 7.77273V49.2273C0 53.514 3.47577 57 7.75 57H54.25C58.5242 57 62 53.514 62 49.2273V18.1364C62 13.8496 58.5242 10.3636 54.25 10.3636ZM7.75 5.18182H46.5C47.9247 5.18182 49.0833 6.34381 49.0833 7.77273V10.3636H7.75C6.32526 10.3636 5.16667 9.20165 5.16667 7.77273C5.16667 6.34381 6.32526 5.18182 7.75 5.18182ZM7.75 51.8182H54.25C55.6747 51.8182 56.8333 50.6562 56.8333 49.2273V42.75H42.625C37.6393 42.75 33.5833 38.6808 33.5833 33.6818C33.5833 28.6828 37.6393 24.6136 42.625 24.6136H56.8333V18.1364C56.8333 16.7074 55.6747 15.5455 54.25 15.5455H7.75C6.84432 15.5455 5.97522 15.3886 5.16667 15.1014V49.2273C5.16667 50.6562 6.32526 51.8182 7.75 51.8182ZM56.8333 37.5682H50.7881C51.3564 36.3644 51.6667 35.0475 51.6667 33.6818C51.6667 32.2902 51.3425 30.9758 50.7818 29.7955H56.8333V37.5682ZM42.625 29.7955C40.4888 29.7955 38.75 31.5394 38.75 33.6818C38.75 35.8243 40.4888 37.5682 42.625 37.5682C43.6593 37.5682 44.6388 37.1627 45.3799 36.4258C46.0957 35.7015 46.5 34.7192 46.5 33.6818C46.5 31.5394 44.7612 29.7955 42.625 29.7955Z" fill="#C6C6C6"/>
</svg>
