<?xml version="1.0" encoding="iso-8859-1"?>
<!-- Generator: Adobe Illustrator 19.0.0, SVG Export Plug-In . SVG Version: 6.00 Build 0)  -->
<svg version="1.1" id="Capa_1" xmlns="http://www.w3.org/2000/svg" xmlns:xlink="http://www.w3.org/1999/xlink" x="0px" y="0px"
	 viewBox="0 0 384 384" style="enable-background:new 0 0 384 384;" xml:space="preserve">
<g>
		<path d="M256,0H128c-8.832,0-16,7.168-16,16v272c0,8.832,7.168,16,16,16h128c8.832,0,16-7.168,16-16V16C272,7.168,264.832,0,256,0
			z M240,272h-96V32h96V272z"/>
		<path d="M96,328c-8.832,0-16,7.168-16,16v24c0,8.832,7.168,16,16,16c8.832,0,16-7.168,16-16v-24C112,335.168,104.832,328,96,328z"
			/>
		<path d="M288,328c-8.832,0-16,7.168-16,16v24c0,8.832,7.168,16,16,16c8.832,0,16-7.168,16-16v-24C304,335.168,296.832,328,288,328
			z"/>
		<path d="M192,328c-8.832,0-16,7.168-16,16v24c0,8.832,7.168,16,16,16c8.832,0,16-7.168,16-16v-24C208,335.168,200.832,328,192,328
			z"/>
		<path d="M192,184c-8.832,0-16,7.168-16,16v32c0,8.832,7.168,16,16,16c8.832,0,16-7.168,16-16v-32C208,191.168,200.832,184,192,184
			z"/>
		<path d="M192,64c-8.832,0-16,7.168-16,16v64c0,8.832,7.168,16,16,16c8.832,0,16-7.168,16-16V80C208,71.168,200.832,64,192,64z"/>
		<path d="M328,208h-72c-8.832,0-16,7.168-16,16c0,8.832,7.168,16,16,16h72c8.832,0,16-7.168,16-16C344,215.168,336.832,208,328,208
			z"/>
		<path d="M128,208H56c-8.832,0-16,7.168-16,16c0,8.832,7.168,16,16,16h72c8.832,0,16-7.168,16-16C144,215.168,136.832,208,128,208z
			"/>
		<path d="M328,104h-72c-8.832,0-16,7.168-16,16v168c0,8.832,7.168,16,16,16h72c8.832,0,16-7.168,16-16V120
			C344,111.168,336.832,104,328,104z M312,272h-40V136h40V272z"/>
		<path d="M128,104H56c-8.832,0-16,7.168-16,16v168c0,8.832,7.168,16,16,16h72c8.832,0,16-7.168,16-16V120
			C144,111.168,136.832,104,128,104z M112,272H72V136h40V272z"/>
		<path d="M368,272H16c-8.832,0-16,7.168-16,16v80c0,8.832,7.168,16,16,16c8.832,0,16-7.168,16-16v-64h320v64
			c0,8.832,7.168,16,16,16c8.832,0,16-7.168,16-16v-80C384,279.168,376.832,272,368,272z"/>
</g>
</svg>
