<svg xmlns="http://www.w3.org/2000/svg">
  <symbol id="wallet" viewBox="0 0 32 29">
    <g>
      <path fill-rule="evenodd" clip-rule="evenodd" d="M28 5.27273V3.95455C28 1.77356 26.2061 0 24 0H4C1.79395 0 0 1.77356 0 3.95455V25.0455C0 27.2264 1.79395 29 4 29H28C30.2061 29 32 27.2264 32 25.0455V9.22727C32 7.04629 30.2061 5.27273 28 5.27273ZM4 2.63636H24C24.7354 2.63636 25.3333 3.22755 25.3333 3.95455V5.27273H4C3.26465 5.27273 2.66667 4.68154 2.66667 3.95455C2.66667 3.22755 3.26465 2.63636 4 2.63636ZM4 26.3636H28C28.7354 26.3636 29.3333 25.7724 29.3333 25.0455V21.75H22C19.4268 21.75 17.3333 19.6797 17.3333 17.1364C17.3333 14.593 19.4268 12.5227 22 12.5227H29.3333V9.22727C29.3333 8.50028 28.7354 7.90909 28 7.90909H4C3.53255 7.90909 3.08398 7.82928 2.66667 7.68317V25.0455C2.66667 25.7724 3.26465 26.3636 4 26.3636ZM29.3333 19.1136H26.2132C26.5065 18.5012 26.6667 17.8312 26.6667 17.1364C26.6667 16.4284 26.4993 15.7596 26.21 15.1591H29.3333V19.1136ZM22 15.1591C20.8975 15.1591 20 16.0464 20 17.1364C20 18.2264 20.8975 19.1136 22 19.1136C22.5339 19.1136 23.0394 18.9073 23.4219 18.5324C23.7913 18.1639 24 17.6642 24 17.1364C24 16.0464 23.1025 15.1591 22 15.1591Z"/>  
    </g>
  </symbol>
  <symbol id="folder" viewBox="0 0 32 32">
    <g>
      <path fill-rule="evenodd" clip-rule="evenodd" d="M29.3333 6.66667H15.425L12.2 1.29167C11.7167 0.5 10.8417 0 9.90833 0H2.66667C1.2 0 0 1.2 0 2.66667V29.3333C0 30.8 1.2 32 2.66667 32H29.3333C30.8 32 32 30.8 32 29.3333V9.33333C32 7.86667 30.8 6.66667 29.3333 6.66667ZM9.90833 2.66667L12.3083 6.66667H2.66667V2.66667H9.90833ZM2.66667 29.3333H29.3333V9.33333H2.66667V29.3333Z"/>
      <path fill-rule="evenodd" clip-rule="evenodd" d="M10.3 17H20.7C21.415 17 22 16.325 22 15.5C22 14.675 21.415 14 20.7 14H10.3C9.585 14 9 14.675 9 15.5C9 16.325 9.585 17 10.3 17Z"/>
      <path fill-rule="evenodd" clip-rule="evenodd" d="M10.2857 23H16.7143C17.4214 23 18 22.325 18 21.5C18 20.675 17.4214 20 16.7143 20H10.2857C9.57857 20 9 20.675 9 21.5C9 22.325 9.57857 23 10.2857 23Z"/>
    </g>
  </symbol>

  <symbol id="atm" viewBox="0 0 32 28">
    <g>
      <path fill-rule="evenodd" clip-rule="evenodd" d="M1.3125 0H30.6875C31.4125 0 32 0.593883 32 1.31904V12.0027C32 12.7278 31.4125 13.3155 30.6875 13.3155H25.9875V26.6872C25.9875 27.4124 25.4 28 24.675 28H7.31875C6.59375 28 6.00625 27.4124 6.00625 26.6872V13.3155H1.3125C0.5875 13.3155 0 12.7278 0 12.0027V1.31279C0 0.587631 0.5875 0 1.3125 0ZM25.9875 10.6836H29.3687H29.375V2.63184H2.63125V10.6836H6.0125V6.65774C6.0125 5.93257 6.6 5.34494 7.325 5.34494C8.05 5.34494 8.6375 5.93257 8.6375 6.65774V25.3744H23.3625V6.65774C23.3625 5.93257 23.95 5.34494 24.675 5.34494C25.4 5.34494 25.9875 5.93257 25.9875 6.65774V10.6836Z"/>
      <path fill-rule="evenodd" clip-rule="evenodd" d="M16.9218 16.6705C15.6973 17.9406 13.5588 17.047 13.5588 15.2025C13.5588 14.4621 12.9861 13.8621 12.2794 13.8621C11.5727 13.8621 11 14.4621 11 15.2025C11 17.3151 12.3342 19.1725 14.2534 19.7597V20.6596C14.2534 21.4 14.826 22 15.5328 22C16.2395 22 16.8122 21.4 16.8122 20.6596V19.7597C17.6164 19.5171 18.317 19.0448 18.847 18.4449C20.9124 16.1216 20.0899 12.3239 17.2813 11.1048L14.759 10.007C13.6502 9.52826 13.2847 8.08578 13.9548 7.14115C14.3752 6.54756 14.2594 5.70505 13.6929 5.26464C13.1263 4.82424 12.3221 4.94551 11.9017 5.5391C10.2324 7.8943 11.134 11.3346 13.7781 12.4834L16.3004 13.5813C17.5006 14.0983 17.8357 15.7258 16.9218 16.6705Z"/>
      <path fill-rule="evenodd" clip-rule="evenodd" d="M18.6083 8.58266C18.6083 9.36557 19.1436 10 19.8042 10C20.4647 10 21 9.36557 21 8.58266C21 7.48253 20.7039 6.44315 20.1515 5.56575C19.7529 4.93807 19.0012 4.81658 18.4773 5.28228C17.9477 5.75473 17.8452 6.64563 18.2382 7.26656C18.4773 7.65126 18.6083 8.10346 18.6083 8.58266Z"/>
    </g>
  </symbol>

  <symbol id="arrow-right" viewBox="0 0 35 28">
    <g>
      <path fill-rule="evenodd" clip-rule="evenodd" d="M19.1212 27.6649L34.0169 15.0505C34.661 14.4992 34.661 13.5016 34.0169 12.9503L19.1146 0.329309C18.2181 -0.425455 16.8102 0.198046 16.8102 1.37942V7.71287H1.8946C1.12425 7.71287 0.5 8.32981 0.5 9.09114V18.9031C0.5 19.6644 1.12425 20.2813 1.8946 20.2813H16.8168V26.6148C16.8168 27.7962 18.2181 28.4328 19.1212 27.6649ZM19.606 9.0977V4.38535L30.962 14.0004L19.606 23.6154V15.3983C19.606 14.637 18.9818 14.0201 18.2114 14.0201C17.4411 14.0201 16.8168 14.637 16.8168 15.3983V17.5248H3.29584V10.476H18.2114C18.9818 10.476 19.606 9.85903 19.606 9.0977Z"/>  
    </g>
  </symbol>

  <symbol id="search" viewBox="0 0 22 22">
    <g>
      <path fill-rule="evenodd" clip-rule="evenodd" d="M17.622 13.7157L21.2566 17.3367C22.2478 18.4339 22.2478 20.0798 21.2566 21.1771C20.1552 22.2743 18.5031 22.2743 17.4018 21.1771L13.7672 17.5561C12.4456 18.2145 10.9036 18.6534 9.3617 18.6534C4.18523 18.6534 0 14.4838 0 9.32668C0 4.16958 4.18523 0 9.3617 0C14.5382 0 18.7234 4.16958 18.7234 9.32668C18.7234 10.8628 18.2829 12.399 17.622 13.7157ZM2.20275 9.32668C2.20275 13.2768 5.39675 16.4589 9.3617 16.4589C13.3267 16.4589 16.5207 13.2768 16.5207 9.32668C16.5207 5.37656 13.3267 2.19451 9.3617 2.19451C5.39675 2.19451 2.20275 5.37656 2.20275 9.32668Z"/>
    </g>
  </symbol>

  <symbol id="in-progress" viewBox="0 0 26 27">
    <g>
      <path fill-rule="evenodd" clip-rule="evenodd" d="M23.8173 18.5309C24.0899 18.0244 24.6544 17.853 25.1086 18.1361L25.485 18.367C25.7186 18.516 25.8938 18.7618 25.9651 19.0597C26.0365 19.3576 25.9976 19.6705 25.8548 19.9386C25.3163 20.9442 24.6674 21.8678 23.9276 22.6872C23.7459 22.8883 23.5059 23 23.2528 23C23.2398 23 23.2203 23 23.2074 23C22.9413 22.9851 22.6883 22.8436 22.5131 22.6127L22.234 22.2402C21.8966 21.7933 21.9291 21.123 22.2989 20.7133C22.8829 20.0578 23.3955 19.3279 23.8173 18.5309Z" fill="#C6C6C6"/>
      <path fill-rule="evenodd" clip-rule="evenodd" d="M13.9487 24.5418C14.8077 24.4813 15.6598 24.3201 16.4775 24.0515C16.9929 23.8836 17.5564 24.1388 17.7557 24.6358L17.9275 25.0522C18.0306 25.3075 18.0237 25.5963 17.9069 25.8515C17.7901 26.1 17.5633 26.2948 17.2953 26.3821C16.7387 26.5634 16.1614 26.7045 15.5911 26.8119C15.1031 26.8993 14.6015 26.9664 14.1067 27C14.0861 27 14.0586 27 14.038 27C13.7769 27 13.5295 26.906 13.3371 26.7313C13.1309 26.5433 13.0072 26.2813 13.0072 25.9993L13.0003 25.556C12.9866 25.0254 13.4058 24.5754 13.9487 24.5418Z" fill="#C6C6C6"/>
      <path fill-rule="evenodd" clip-rule="evenodd" d="M5.54151 22.3898C5.89724 21.9555 6.53756 21.87 6.99289 22.2047C7.71147 22.7316 8.50119 23.1589 9.32649 23.4935C9.85297 23.7 10.1233 24.2839 9.94546 24.818L9.79605 25.2666C9.70356 25.5443 9.50435 25.7721 9.234 25.9003C9.0917 25.9644 8.93518 26 8.77866 26C8.64348 26 8.51542 25.9715 8.38736 25.9288C7.34151 25.5158 6.34546 24.9675 5.43479 24.2982C5.20001 24.1273 5.04349 23.8638 5.00792 23.5719C4.97234 23.2799 5.05772 22.988 5.2427 22.7601L5.54151 22.3898Z" fill="#C6C6C6"/>
      <path fill-rule="evenodd" clip-rule="evenodd" d="M0.945969 15.1015L1.4523 15.0186C2.0599 14.915 2.65193 15.2535 2.79993 15.7924C3.03362 16.6422 3.39195 17.4575 3.85934 18.2244C4.15535 18.708 3.9684 19.3091 3.44648 19.5993L3.01026 19.8411C2.8233 19.9447 2.61298 20 2.39486 20C2.2936 20 2.19233 19.9862 2.09885 19.9655C1.78726 19.8895 1.52241 19.7098 1.37441 19.4611C0.782384 18.4938 0.330578 17.4575 0.0345674 16.3797C-0.0433302 16.1033 0.0111981 15.8132 0.190363 15.5713C0.353948 15.3226 0.626589 15.1568 0.945969 15.1015Z" fill="#C6C6C6"/>
      <path fill-rule="evenodd" clip-rule="evenodd" d="M1.67159 12H1.15548C0.516112 12 0 11.5293 0 10.9461C0 10.8618 0.00770317 10.7775 0.0308127 10.7002C0.46219 8.60656 1.4636 6.61124 2.94261 4.92506C5.17653 2.37471 8.35023 0.688525 11.8783 0.168618C12.6409 0.0562061 13.4189 0 14.1892 0C16.1766 0 18.141 0.379391 19.9512 1.10304L20.8525 0.274005C21.0373 0.105386 21.307 0.0351288 21.5612 0.0913349C21.8154 0.147541 22.0234 0.323185 22.1004 0.555035L23.9646 5.97892C24.0493 6.22482 23.98 6.48478 23.7797 6.66745C23.5794 6.85012 23.2867 6.91335 23.0248 6.83607L17.0779 5.13583C16.8237 5.06557 16.6388 4.87588 16.5695 4.64403C16.5079 4.41218 16.5849 4.16628 16.7698 3.99766L17.7712 3.08431C16.6157 2.73302 15.4063 2.55738 14.1738 2.55738C10.6458 2.55738 7.35652 4.00468 5.13801 6.52693C3.95943 7.86885 3.1506 9.4637 2.80395 11.1429C2.70381 11.6347 2.23392 12 1.67159 12Z" fill="#C6C6C6"/>
    </g>
  </symbol>

  <symbol id="deposit-done" viewBox="0 0 26 20">
    <g>
      <path fill-rule="evenodd" clip-rule="evenodd" d="M9.95456 19.617C9.70519 19.8641 9.36854 20 9.01319 20C8.65783 20 8.32118 19.8641 8.07181 19.617L0.584462 12.1859C-0.194821 11.4138 -0.194821 10.166 0.584462 9.39387L1.52584 8.46112C2.30512 7.68898 3.56444 7.68898 4.34372 8.46112L9.02566 13.1001L21.6563 0.579106C22.4356 -0.193035 23.6949 -0.193035 24.4742 0.579106L25.4155 1.51185C26.1948 2.28399 26.1948 3.53177 25.4155 4.30391L9.95456 19.617Z" fill="#37CE9A"/>  
    </g>
  </symbol>

  <symbol id="save-deposit" viewBox="0 0 20 15">
    <g>
      <path fill-rule="evenodd" clip-rule="evenodd" d="M0 8.13808L6.84888 15L20 1.86194L18.1119 0L6.84888 11.2499L1.86191 6.26303L0 8.13808Z" fill="white"/>
    </g>
  </symbol>



</svg>

