<svg width="22" height="22" viewBox="0 0 22 22" fill="none" xmlns="http://www.w3.org/2000/svg">
<path fill-rule="evenodd" clip-rule="evenodd" d="M0 11C0 4.93423 4.93509 0 11 0C17.0658 0 22 4.93423 22 11C22 17.0658 17.0658 22 11 22C8.93634 22 7.01155 21.418 5.35941 20.4263C5.23673 20.3828 5.12424 20.3197 5.03478 20.2286C2.00999 18.2672 0 14.8666 0 11ZM6.54036 19.1533C7.8653 19.881 9.38536 20.2959 11 20.2968C12.6019 20.2968 14.11 19.8895 15.4272 19.1729C15.198 17.0232 13.4121 15.4997 10.9829 15.4997C8.56144 15.4997 6.77806 17.0138 6.54036 19.1533ZM8.38419 10.6847C8.38419 9.24219 9.55745 8.06893 11 8.06893C12.4425 8.06893 13.6158 9.24219 13.6158 10.6847C13.6158 12.1272 12.4425 13.3005 11 13.3005C9.55745 13.3005 8.38419 12.1273 8.38419 10.6847ZM13.4445 14.2404C15.2049 14.9194 16.5 16.3271 16.9746 18.1112C19.0025 16.4046 20.2959 13.8518 20.2959 11C20.2959 5.8749 16.126 1.7041 11 1.7041C5.87404 1.7041 1.7041 5.8749 1.7041 11C1.7041 13.8382 2.98646 16.3799 4.99813 18.0874C5.47955 16.3066 6.78064 14.905 8.54524 14.2327C7.42053 13.4514 6.68009 12.1545 6.68009 10.6847C6.68009 8.30238 8.61764 6.36483 11 6.36483C13.3823 6.36483 15.3199 8.30238 15.3199 10.6847C15.3199 12.1588 14.5752 13.4607 13.4445 14.2404Z" fill="black"/>
</svg>
