<svg width="165" height="59" viewBox="0 0 165 59" fill="none" xmlns="http://www.w3.org/2000/svg">
<path fill-rule="evenodd" clip-rule="evenodd" d="M36.5372 48.7342C36.5372 48.8011 36.4412 48.9159 36.3837 48.9254C36.2878 48.935 36.1439 48.8872 36.0863 48.8203C34.9832 47.7112 33.6019 46.5734 32.2014 45.8371C30.6475 45.0149 28.9209 44.6133 27.693 44.183C26.5132 43.7623 23.0887 42.6245 21.7938 42.5671C20.7098 42.5193 18.0528 42.1082 17.4868 41.9839C15.8465 41.6301 14.5899 41.0565 13.0168 40.2055C11.9041 39.6031 10.3213 37.9299 9.88969 37.4614C9.80336 37.3658 8.10552 36.0654 7.21343 35.7021C6.14868 35.2718 3.49161 34.8989 2.38849 34.7077C2.02398 34.6408 1.47722 34.4496 1.51559 34.0289C1.6211 32.6998 1.70743 31.7533 2.08153 30.2426C2.43645 28.8084 2.64748 28.1677 3.05036 27.1351C3.26139 26.5997 3.41487 26.6762 4.08633 26.8483C4.94964 27.0682 10.8106 30.8067 11.5492 31.3804C12.0863 31.8011 12.6811 32.2409 13.3525 32.4704C14.5324 32.8719 18.0623 33.503 18.5899 33.5699C20.47 33.8089 22.0336 34.1149 23.6163 34.8129C24.4508 35.1858 25.3237 35.5109 26.1199 35.9316C27.0504 36.4288 30.4652 38.5036 31.2038 39.0677C32.1151 39.7657 34.1775 41.6493 34.3501 41.8309C34.8201 42.3472 34.8106 42.548 35.271 43.0739C35.2902 43.1313 36.5276 48.1797 36.5372 48.7342Z" fill="black"/>
<path fill-rule="evenodd" clip-rule="evenodd" d="M0.911261 49.4513C0.748191 49.2505 0.143874 47.3956 0.0671358 45.4451C-0.00960276 43.4755 0.460421 41.7544 0.575529 41.133C0.633083 40.8174 0.767376 40.7696 1.10311 40.8079C1.90886 40.9035 7.27097 42.2994 8.24939 42.6341C8.90167 42.854 9.12229 43.4372 9.35251 43.9344C9.72661 44.7376 10.3021 45.3686 11.0887 45.8563C11.2806 45.9806 11.5108 46.0571 11.7314 46.1527C12.6139 46.5351 13.458 47.0036 14.3789 47.2618C15.9328 47.7016 17.5252 48.0649 19.1846 47.9789C20.2302 47.9215 21.2758 47.6347 22.3117 47.7303C22.8585 47.7781 23.3957 48.237 23.6739 48.3709C24.8441 48.9255 26.0144 49.4991 27.2134 50.0155C27.9328 50.331 28.7002 50.57 29.458 50.8186C30.4844 51.1437 31.5492 51.4114 32.5659 51.7556C33.8033 52.1763 36.259 53.2472 36.777 53.4289C36.8921 53.4671 37.0168 53.5054 37.0935 53.5723C37.1607 53.6392 37.2374 53.7635 37.199 53.8496C37.1703 53.9261 39.8561 58.5633 39.2326 58.5537C38.9544 58.5537 38.7434 58.3243 38.494 58.2095C38.0719 58.0279 36.0096 56.8901 35.3381 56.6128C34.3405 56.1921 33.2662 55.5419 32.211 55.3029C30.8393 54.9874 29.5156 54.7292 28.048 54.9396C27.0312 55.083 26.0336 55.3603 25.0168 55.5132C22.7914 55.8479 20.5659 56.1538 18.3885 55.3029C17.0264 54.7675 15.5779 54.3563 14.3021 53.687C13.0551 53.0368 11.9904 52.1285 10.8393 51.3445C10.2446 50.9429 9.66905 50.5222 9.04555 50.1589C8.83452 50.0346 7.9904 49.6904 7.82733 49.5948C6.47481 48.8107 2.80095 49.4322 2.38848 49.4991C2.21582 49.5278 1.1127 49.6999 0.911261 49.4513Z" fill="black"/>
<path fill-rule="evenodd" clip-rule="evenodd" d="M43.271 10.9478C43.9616 11.3971 44.5468 14.9062 46.4173 15.6711C47.0983 15.9483 47.8657 17.0479 47.8561 17.6311C47.8273 19.1323 49.3237 24.6779 49.7074 25.8635C49.8417 26.2842 50.0815 28.2347 50.1199 28.3877C50.8777 31.3708 53.036 34.6121 53.199 35.3579C53.6307 37.318 51.7602 39.0773 50.8202 39.89C49.6595 40.8844 48.211 41.3051 46.7146 40.7888C45.6307 40.4159 43.5779 38.4653 43.4149 38.2741C42.8681 37.6622 42.9449 36.8782 42.9544 36.1611C42.964 35.1667 42.6475 34.3348 42.0719 33.5699C41.7746 33.1779 36.6043 28.751 31.8465 27.3455C31.4532 26.963 30.801 25.9782 31.0791 25.7583C31.741 25.2133 33.4389 26.0356 33.554 26.0738C39.5396 27.9479 44.518 33.264 44.8441 33.0823C45.0839 32.958 45.3333 32.5947 45.3333 32.327C45.3429 31.3995 44.988 30.5868 44.3549 29.8697C43.9329 29.3821 42.542 27.269 42.0048 26.7049C41.506 26.1886 40.0288 25.003 39.4532 24.6874C38.9928 24.4388 35.6835 22.7847 35.271 22.6031C34.5324 22.2684 34.2446 18.6447 36.1727 19.8207C37.4772 20.6239 40.4892 22.364 41.9185 22.6795C42.5995 22.8325 43.2038 23.5496 43.482 24.0946C43.7314 24.5823 45.3525 26.4276 46.0528 27.4124C46.5324 28.0913 47.0024 29.4299 47.0312 29.9653C47.0696 30.692 47.1847 31.084 47.7314 31.4186C48.3741 31.8106 49.3333 31.3804 49.3621 30.625C49.3813 30.0992 49.3046 29.535 49.1031 29.057C48.6043 27.8714 47.5012 23.4349 47.223 22.909C46.9832 22.4692 45.6883 20.251 45.4293 19.8207C45.2662 19.5434 45.2086 19.161 45.2374 18.8359C45.3429 17.526 44.1439 17.6311 42.1199 14.1317C41.9089 13.95 41.7362 13.7206 41.5444 13.5293C40.9592 12.9556 42.8297 10.6705 43.271 10.9478Z" fill="black"/>
<path fill-rule="evenodd" clip-rule="evenodd" d="M21.7362 18.7881C21.0264 18.5682 19.2326 15.8049 18.4077 13.9596C17.5444 12.0186 15.5204 10.2307 14.8297 9.70479C14.6763 9.59005 14.3117 9.48487 14.2926 9.24584C14.2638 8.92075 14.3885 8.61479 14.5611 8.42356C15.3093 7.56304 17.7266 5.09621 20.5372 3.69069C21.0552 3.43254 21.2566 3.43254 21.6691 3.90104C22.1007 4.38867 24.7866 8.16541 25.247 9.62829C26.2062 12.621 26.3405 15.3842 26.7146 16.7133C27.0504 17.8797 28.4221 19.5052 28.8729 20.2796C29.3909 21.1689 30.0144 22.0485 30.3117 23.0333C32.2014 26.4945 36.3357 27.03 37.4676 27.7757C37.8321 28.0148 35.6643 28.8466 35.1175 28.8084C33.3813 28.6745 29.4964 28.3112 27.4724 21.8764C27.0408 20.49 25.6211 19.4096 24.6619 18.9315C23.693 18.463 22.9448 19.1514 21.7362 18.7881Z" fill="black"/>
<path fill-rule="evenodd" clip-rule="evenodd" d="M5.68824 20.5282C5.29495 20.4613 5.22781 20.1744 5.40047 19.8398C5.96642 18.7498 6.41726 17.9658 7.39567 16.761C7.65467 16.436 8.71941 15.0591 9.78416 15.6806C10.8681 16.3786 11.8945 17.1531 12.9209 17.9275C13.4005 18.2813 14.446 19.2757 14.6091 19.6964C15.0504 20.882 15.789 21.8955 17.0168 22.5648C17.8705 23.0333 18.5995 23.4827 19.434 23.8651C19.8945 24.0755 20.3837 24.1233 20.988 23.9799C22.4173 23.6165 22.5228 23.6643 23.9328 23.999C24.5563 24.1807 25.0647 24.9934 25.4388 25.7774C26.1103 27.1925 25.7554 28.9613 30.4844 30.2617C31.482 30.539 31.4628 31.8202 32.1343 32.566C32.6043 33.0918 33.1703 34.2774 33.7938 34.6981C33.976 34.8224 34.2254 34.8702 34.3981 34.9945C34.5132 35.0806 34.6763 35.2527 34.6187 35.3961C34.542 35.5587 34.2254 35.5969 34.0911 35.5491C33.7842 35.4439 30.9448 33.9619 30.4652 33.6464C29.4197 32.958 25.7938 31.0648 24.9113 30.5294C23.5779 29.7358 22.3501 29.0856 20.7386 29.0856C19.8945 29.0856 19.0312 28.99 18.2062 28.8179C16.7482 28.5215 15.4724 27.8618 14.3501 26.9726C13.9185 26.6284 12.47 25.2515 12.2782 24.8882C11.7122 23.8269 10.8201 23.0429 9.81294 22.3831C8.96882 21.8668 6.44603 20.6621 5.68824 20.5282Z" fill="black"/>
<path fill-rule="evenodd" clip-rule="evenodd" d="M36.566 1.16649C36.5564 1.79753 36.6139 3.19349 36.6139 4.0827C36.6139 5.59339 36.1919 6.94154 36.1151 8.49048C36.0384 10.1828 36.1247 10.9669 36.6715 12.3533C36.9209 12.7357 36.988 13.1469 36.7674 13.4911C36.1247 14.5141 35.5108 15.0496 35.3573 16.4073C35.1751 17.9849 36.6235 20.6716 36.8058 21.7043C36.8729 22.0963 37.0168 22.3736 36.6907 22.5648C36.2206 22.8421 35.3669 22.603 35.3669 22.603C34.542 22.3258 33.5252 19.8303 33.2662 18.8741C32.9113 17.5738 32.6811 16.2256 32.3741 14.8966C32.048 13.472 30.1679 7.50566 29.9856 6.84593C29.5827 5.35436 28.8921 4.12094 28.0384 3.07876C27.8178 2.81104 27.8273 2.48595 28.1055 2.28516C28.4988 2.01745 28.8921 1.74017 29.3046 1.54894C30.8393 0.831838 33.3909 0.0478067 35.1847 0.0573681C36.8154 0.0860521 36.566 0.898767 36.566 1.16649Z" fill="black"/>
<path fill-rule="evenodd" clip-rule="evenodd" d="M45.4293 9.1311C45.247 9.35101 43.3573 12.0282 44.2494 12.9843C44.8729 13.6536 43.53 13.9978 42.6283 14.0552C41.6403 14.1221 40.9017 13.0513 41.3525 12.076C41.8513 10.9956 42.9257 7.68733 43.3093 6.57821C43.6739 5.52647 43.8657 4.43647 44.1343 3.3656C44.1918 3.14569 44.4029 2.19911 44.6427 2.14175C44.9017 2.07482 45.0839 2.37122 45.2662 2.51464C45.6019 2.80148 48.3357 4.46516 48.8249 4.752C49.0264 4.86673 49.2278 5.05796 49.2662 5.25875C49.3046 5.44041 48.988 5.55515 48.7962 5.6412C46.7818 6.58778 45.5827 8.94943 45.4293 9.1311Z" fill="black"/>
<path fill-rule="evenodd" clip-rule="evenodd" d="M42.0624 17.4208C42.0528 17.6503 42.0336 17.8893 42.1007 18.0996C42.2542 18.5681 42.4748 19.008 42.6571 19.4669C42.6955 19.5625 42.7242 19.7346 42.6379 19.8016C42.5228 19.8972 42.2734 19.8111 42.1871 19.7251C41.6211 19.1514 40.9209 18.7881 40.1439 18.8167C39.2998 18.8454 39.0312 18.3291 38.8393 17.7172C38.705 17.2774 38.6955 16.7993 38.6091 16.3403C38.5708 16.1491 38.4844 15.9675 38.4077 15.7667C39.1175 15.2025 40.7194 15.5946 41.0552 15.7953C42.0432 16.3595 42.072 17.1435 42.0624 17.4208Z" fill="black"/>
<path fill-rule="evenodd" clip-rule="evenodd" d="M76.7054 51.6068L77.2712 52.4357C76.878 52.9407 76.3505 53.3313 75.6888 53.6076C75.0271 53.8839 74.3175 54.0173 73.5599 54.0173C72.0351 54.0173 70.7788 53.5505 69.8006 52.6263C68.8416 51.7021 68.3621 50.473 68.3621 48.9391C68.3621 47.5099 68.832 46.3094 69.7623 45.3376C70.7117 44.3563 71.872 43.8608 73.2626 43.8608C74.9504 43.8608 76.2259 44.2705 77.089 45.0804L76.5423 45.995C75.7656 45.29 74.7394 44.9279 73.4352 44.9279C72.3899 44.9279 71.4789 45.309 70.7021 46.0808C69.9445 46.8335 69.5705 47.7862 69.5705 48.9486C69.5705 50.1681 69.9541 51.14 70.7308 51.8831C71.498 52.6072 72.4762 52.9693 73.6558 52.9693C74.9121 52.9502 75.9286 52.5024 76.7054 51.6068Z" fill="black"/>
<path fill-rule="evenodd" clip-rule="evenodd" d="M79.9851 52.5882C80.9441 53.5409 82.1812 54.0173 83.6964 54.0173C85.2116 54.0173 86.4487 53.5409 87.4077 52.5882C88.3667 51.6259 88.8462 50.4159 88.8462 48.9391C88.8462 47.4623 88.3667 46.2428 87.4077 45.29C86.4487 44.3372 85.2116 43.8608 83.6964 43.8608C82.1812 43.8608 80.9441 44.3372 79.9851 45.29C79.0261 46.2523 78.5466 47.4623 78.5466 48.9391C78.5466 50.4159 79.0261 51.6354 79.9851 52.5882ZM86.5351 51.845C85.8254 52.5786 84.876 52.9502 83.6964 52.9502C82.5456 52.9502 81.5962 52.5786 80.8578 51.826C80.1194 51.0733 79.7454 50.111 79.7454 48.9391C79.7454 47.7672 80.1194 46.8049 80.8578 46.0522C81.6154 45.309 82.5648 44.9279 83.6964 44.9279C84.8472 44.9279 85.7966 45.2995 86.5351 46.0522C87.2735 46.8049 87.6475 47.7672 87.6475 48.9391C87.6475 50.1205 87.2735 51.0923 86.5351 51.845Z" fill="black"/>
<path fill-rule="evenodd" clip-rule="evenodd" d="M92.7589 53.8172H91.6273V44.0514H92.7589V45.4234C93.1617 44.9756 93.6987 44.604 94.3413 44.3182C94.9934 44.0324 95.6455 43.8799 96.2976 43.8799C97.669 43.8799 98.6951 44.2324 99.376 44.947C100.057 45.6521 100.402 46.7573 100.402 48.2436V53.8172H99.2705V48.4532C99.2705 46.1094 98.1964 44.9375 96.0387 44.9375C95.4153 44.9375 94.8016 45.0804 94.207 45.3567C93.6124 45.6425 93.1329 45.9951 92.7685 46.4333V53.8172H92.7589Z" fill="black"/>
<path fill-rule="evenodd" clip-rule="evenodd" d="M108.755 51.2638C108.755 50.816 108.573 50.454 108.199 50.1777C107.825 49.9014 107.374 49.6822 106.847 49.5298C106.319 49.3678 105.782 49.1963 105.245 48.9962C104.708 48.8057 104.248 48.4913 103.883 48.0625C103.509 47.6338 103.327 47.1002 103.327 46.4428C103.327 45.6616 103.615 45.0327 104.2 44.5659C104.785 44.099 105.542 43.8608 106.492 43.8608C107.844 43.8608 108.87 44.2229 109.57 44.947L109.091 45.795C108.419 45.1757 107.566 44.8612 106.511 44.8612C105.926 44.8612 105.456 45.0137 105.082 45.309C104.708 45.6044 104.526 45.976 104.526 46.4238C104.526 46.8906 104.708 47.2622 105.082 47.5671C105.456 47.8625 105.907 48.0911 106.434 48.2626C106.962 48.4246 107.499 48.6056 108.036 48.7962C108.573 48.9867 109.033 49.2821 109.397 49.6822C109.772 50.0919 109.954 50.5969 109.954 51.2257C109.954 52.1118 109.618 52.7978 108.956 53.2837C108.295 53.7791 107.441 54.0173 106.415 54.0173C105.772 54.0173 105.101 53.8744 104.401 53.579C103.749 53.3027 103.298 52.9788 103.049 52.5977L103.682 51.8641C103.96 52.1975 104.372 52.4738 104.929 52.693C105.494 52.9121 106.031 53.0169 106.549 53.0169C107.192 53.0169 107.719 52.8645 108.132 52.5501C108.544 52.2452 108.755 51.8069 108.755 51.2638Z" fill="black"/>
<path fill-rule="evenodd" clip-rule="evenodd" d="M120.071 44.0514H121.203V53.8172H120.071V52.2738C119.659 52.7787 119.122 53.1979 118.441 53.5219C117.76 53.8458 117.06 54.0078 116.331 54.0078C113.828 54.0078 112.572 52.5786 112.572 49.7108V44.0419H113.703V49.4726C113.703 51.7878 114.72 52.9502 116.743 52.9502C117.357 52.9502 117.971 52.7882 118.594 52.4643C119.218 52.1404 119.707 51.7402 120.071 51.2638V44.0514Z" fill="black"/>
<path fill-rule="evenodd" clip-rule="evenodd" d="M124.684 51.3019V38.6302H125.815V50.7017C125.815 51.4734 125.921 52.026 126.142 52.369C126.362 52.712 126.727 52.893 127.235 52.893C127.733 52.893 128.184 52.7311 128.616 52.4167L128.903 53.3027C128.338 53.741 127.647 53.9506 126.832 53.9506C125.394 53.9506 124.684 53.0741 124.684 51.3019Z" fill="black"/>
<path fill-rule="evenodd" clip-rule="evenodd" d="M130.62 50.111V41.3456H131.752V44.0609H135.703V45.128H131.752V49.949C131.752 51.9212 132.49 52.9026 133.957 52.9026C134.542 52.9026 135.06 52.7311 135.53 52.3786L135.904 53.2646C135.31 53.7315 134.571 53.9602 133.698 53.9602C131.646 53.9506 130.62 52.6739 130.62 50.111Z" fill="black"/>
<path fill-rule="evenodd" clip-rule="evenodd" d="M139.03 39.7354C138.867 39.8688 138.791 40.0403 138.791 40.2594C138.791 40.4976 138.867 40.6977 139.021 40.8501C139.174 40.993 139.366 41.0693 139.596 41.0693C139.817 41.0693 139.999 40.993 140.133 40.8501C140.277 40.6977 140.344 40.5071 140.344 40.2594C140.344 40.0498 140.268 39.8783 140.114 39.7449C139.961 39.602 139.788 39.5353 139.596 39.5353C139.376 39.5353 139.193 39.602 139.03 39.7354ZM138.992 53.8172H140.124V44.0514H138.992V53.8172Z" fill="black"/>
<path fill-rule="evenodd" clip-rule="evenodd" d="M145.283 53.8172H144.151V44.0514H145.283V45.4234C145.686 44.9756 146.223 44.604 146.865 44.3182C147.518 44.0324 148.17 43.8799 148.822 43.8799C150.193 43.8799 151.219 44.2324 151.9 44.947C152.581 45.6521 152.926 46.7573 152.926 48.2436V53.8172H151.795V48.4532C151.795 46.1094 150.721 44.9375 148.563 44.9375C147.939 44.9375 147.326 45.0804 146.731 45.3567C146.137 45.6425 145.657 45.9951 145.293 46.4333V53.8172H145.283Z" fill="black"/>
<path fill-rule="evenodd" clip-rule="evenodd" d="M154.768 55.2559C154.768 54.5223 155.026 53.8935 155.554 53.3885C156.081 52.8835 156.82 52.531 157.779 52.3214C157.558 52.0642 157.453 51.7497 157.453 51.3877C157.453 51.0256 157.577 50.7017 157.827 50.4063C157.184 50.13 156.686 49.7204 156.321 49.1677C155.957 48.6151 155.774 47.9958 155.774 47.3003C155.774 46.2999 156.129 45.4806 156.849 44.8231C157.558 44.1753 158.498 43.8418 159.668 43.8418C160.598 43.8418 161.423 44.0895 162.133 44.5754H162.152L164.952 43.8418V44.9089L162.967 45.4043C163.36 45.995 163.562 46.6239 163.562 47.2908C163.562 48.2626 163.197 49.082 162.468 49.768C161.739 50.4159 160.809 50.7493 159.668 50.7493C159.256 50.7493 158.93 50.7208 158.68 50.6636C158.546 50.8541 158.479 51.0923 158.479 51.3782C158.479 51.7116 158.575 51.9689 158.767 52.1594C159.004 52.1472 159.195 52.1368 159.342 52.1288C159.539 52.1181 159.654 52.1118 159.687 52.1118C161.183 52.1118 162.382 52.3881 163.274 52.9407C164.166 53.4933 164.607 54.2555 164.607 55.2369C164.607 56.2087 164.166 56.9614 163.274 57.5044C162.382 58.0475 161.193 58.3143 159.687 58.3143C158.172 58.3143 156.973 58.0475 156.091 57.514C155.209 56.9995 154.768 56.2373 154.768 55.2559ZM155.918 55.2559C155.918 55.8943 156.254 56.3897 156.925 56.7518C157.606 57.1233 158.527 57.3139 159.678 57.3139C160.809 57.3139 161.72 57.1233 162.411 56.7518C163.092 56.3706 163.437 55.8752 163.437 55.2559C163.437 54.6176 163.101 54.1126 162.42 53.722C161.739 53.3313 160.828 53.1503 159.678 53.1503C158.546 53.1503 157.635 53.3409 156.944 53.7124C156.264 54.0935 155.918 54.608 155.918 55.2559ZM156.925 47.3099C156.925 46.6143 157.184 46.0427 157.692 45.5758C158.23 45.109 158.882 44.8803 159.658 44.8803C160.445 44.8803 161.097 45.109 161.605 45.5758C162.133 46.0332 162.392 46.6143 162.392 47.3099C162.392 48.0054 162.133 48.577 161.624 49.0439C161.116 49.5107 160.464 49.7394 159.658 49.7394C158.853 49.7394 158.201 49.5107 157.692 49.0439C157.184 48.5866 156.925 48.0054 156.925 47.3099Z" fill="black"/>
<path fill-rule="evenodd" clip-rule="evenodd" d="M71.5319 11.967C71.5319 9.49845 70.5263 8.13981 68.5151 7.91018L67.6723 7.80493C67.4042 7.77623 67.2701 7.60401 67.2701 7.2787C67.2701 6.91512 67.4425 6.73333 67.7873 6.73333L68.247 6.75247L69.626 6.82901C70.7657 6.87685 71.4936 6.90555 71.8192 6.90555C72.7003 6.90555 74.3188 6.80031 76.6651 6.58981C78.1113 6.45586 79.3371 6.38889 80.3331 6.38889C82.9476 6.38889 85.045 6.95339 86.6156 8.07284C88.1958 9.19228 88.9811 10.6944 88.9811 12.5602C88.9811 14.713 87.9947 16.2056 86.0314 17.0571C85.5813 17.258 85.3419 17.4207 85.3323 17.5546C85.3227 17.7747 85.5621 17.9182 86.0506 17.9948C87.5829 18.2627 88.7992 18.9324 89.6898 20.004C90.5805 21.0756 91.021 22.4056 91.021 24.0034C91.021 26.4241 90.207 28.3472 88.5789 29.7633C86.9508 31.1793 84.7481 31.8873 81.9804 31.8873L78.2453 31.7725L75.3722 31.7151C73.5335 31.7151 71.9341 31.7917 70.5837 31.9352C70.1624 31.983 69.7697 32.0117 69.4058 32.0117C69.0419 32.0117 68.8503 31.8491 68.8503 31.5238C68.8503 31.2463 69.0131 31.0836 69.3483 31.0167C70.804 30.7679 71.5414 29.5049 71.5414 27.2182V11.967H71.5319ZM75.7649 10.3691V15.6506C75.7649 16.3778 75.9373 16.8753 76.282 17.1719C76.6268 17.4589 77.2302 17.6025 78.0825 17.6025L80.6204 17.6599L81.7601 17.6025C83.8574 17.3441 84.9109 16.0907 84.9109 13.8327C84.9109 12.0052 84.3267 10.5318 83.1583 9.41234C81.9899 8.2929 80.4576 7.72839 78.5518 7.72839C77.4504 7.72839 76.7034 7.91018 76.3204 8.27376C75.9564 8.62777 75.7649 9.32623 75.7649 10.3691ZM75.7649 25.6682V22.616C75.7649 21.0565 75.8798 20.071 76.1097 19.6404C76.3395 19.2194 76.9046 19.0089 77.7856 19.0089C79.6723 19.0089 81.3578 19.2003 82.8423 19.583C85.4089 20.2432 86.6922 22.0133 86.6922 24.8932C86.6922 26.3571 86.2996 27.6201 85.5143 28.6725C84.5566 29.9355 82.7657 30.567 80.1511 30.567C77.4983 30.567 76.0905 29.6867 75.9469 27.9262L75.8224 26.3667L75.7649 25.6682Z" fill="black"/>
<path fill-rule="evenodd" clip-rule="evenodd" d="M107.503 7.16388C106.258 6.71419 105.166 6.48456 104.247 6.48456C102.542 6.48456 101.115 7.02036 99.9755 8.0824C98.8358 9.154 98.2612 10.4935 98.2612 12.1009C98.2612 13.1438 98.424 14.0528 98.7592 14.8373C98.8646 15.0861 98.922 15.2775 98.922 15.4114C98.922 15.6889 98.6443 15.9472 98.0792 16.2055C96.748 16.8179 95.6754 17.7651 94.8805 19.0376C94.0856 20.3102 93.6834 21.7262 93.6834 23.2667C93.6834 25.9074 94.6698 28.041 96.6427 29.6772C98.606 31.3133 101.173 32.1361 104.343 32.1361C106.766 32.1361 108.92 31.7247 110.807 30.9018L112.464 30.1651C112.799 30.0216 113.058 29.9451 113.259 29.9451C113.431 29.9451 113.699 30.0312 114.054 30.2034C116.256 31.2559 118.248 31.7821 120.039 31.7821C121.141 31.7821 122.366 31.5429 123.707 31.0549C125.048 30.567 125.738 30.1173 125.776 29.7059C125.785 29.4762 125.642 29.3614 125.335 29.3614C125.249 29.3614 125.153 29.371 125.038 29.3997L123.985 29.6963C123.602 29.792 123.142 29.8398 122.587 29.8398C121.399 29.8398 120.058 29.4092 118.584 28.5481C117.109 27.687 116.352 26.9025 116.314 26.1849C116.304 25.9648 116.62 25.1133 117.272 23.6302C117.932 22.1185 118.268 20.8364 118.268 19.7552C118.268 19.229 118.315 18.8846 118.421 18.7219C118.526 18.5592 118.804 18.3966 119.244 18.2531C119.522 18.1478 119.666 17.9852 119.666 17.7651C119.666 17.4302 119.474 17.258 119.091 17.258C118.976 17.258 118.842 17.2676 118.708 17.2963L117.971 17.4207C117.674 17.4685 117.061 17.4972 116.122 17.4972C115.327 17.4972 114.293 17.4589 113 17.3728C112.982 17.3721 112.963 17.3713 112.945 17.3705C112.736 17.3618 112.543 17.3537 112.359 17.3537C112.023 17.3537 111.861 17.4972 111.861 17.7842C111.861 18.1096 112.32 18.3201 113.24 18.4062C114.36 18.4923 115.136 18.7889 115.586 19.2864C116.036 19.7935 116.256 20.6259 116.256 21.7836C116.256 22.5682 116.074 23.3719 115.71 24.2043C115.347 25.0367 114.983 25.4577 114.619 25.4864C114.044 25.5247 112.09 23.9651 108.758 20.8173C106.488 18.6741 104.716 16.6648 103.452 14.7799C102.178 12.8951 101.546 11.3546 101.546 10.1395C101.546 9.44104 101.814 8.84783 102.36 8.35987C102.906 7.8719 103.567 7.62314 104.352 7.62314C105.616 7.62314 106.804 8.1398 107.924 9.16357C109.045 10.1873 109.821 11.479 110.252 13.029C110.414 13.6031 110.654 13.8901 110.97 13.8901C111.286 13.8901 111.449 13.7562 111.449 13.4883C111.449 13.4117 111.42 13.2969 111.372 13.1534C111.286 12.9333 111.171 12.3592 111.037 11.4503C110.903 10.5413 110.836 9.91943 110.836 9.58456C110.836 9.49845 110.855 9.18271 110.893 8.62777C110.895 8.58311 110.897 8.53969 110.898 8.49766C110.906 8.30559 110.912 8.14274 110.912 8.02499C110.912 7.45092 110.769 7.16388 110.472 7.16388C110.357 7.16388 110.261 7.20215 110.175 7.25956L109.773 7.53703C109.629 7.63271 109.457 7.68055 109.275 7.68055C109.064 7.68055 108.47 7.50832 107.503 7.16388ZM97.7345 17.5259C98.4815 16.904 98.9986 16.5978 99.2955 16.6265C99.602 16.6457 99.9659 17.038 100.387 17.7938C101.192 19.1907 102.571 20.846 104.534 22.75C106.497 24.654 108.537 26.3188 110.663 27.7444C111.305 28.1654 111.621 28.529 111.621 28.8256C111.621 29.1988 111.257 29.5241 110.529 29.8015C109.811 30.079 108.949 30.2225 107.953 30.2225C106.287 30.2225 104.659 29.8015 103.078 28.9596C101.498 28.1176 100.138 26.9503 98.9986 25.4481C97.4472 23.4293 96.6427 21.6114 96.5661 19.9753C96.5182 19.0185 96.9109 18.2052 97.7345 17.5259Z" fill="black"/>
<path fill-rule="evenodd" clip-rule="evenodd" d="M150.049 6.40796C150.317 6.39842 150.73 6.41749 151.286 6.46517C152.705 6.59868 153.961 6.66543 155.073 6.66543C156.204 6.66543 157.202 6.57961 158.065 6.40796L158.208 6.38889C158.477 6.38889 158.611 6.54146 158.611 6.83708C158.611 7.11363 158.41 7.31389 158.017 7.45693C157.307 7.70487 156.732 8.06724 156.31 8.56312C155.888 9.059 155.476 9.81235 155.083 10.8232L153.999 13.4838L152.321 17.6224C151.046 20.7693 150.26 22.7052 149.982 23.4299C148.85 26.3098 148.131 28.1026 147.824 28.7988C147.125 30.3341 146.722 31.2686 146.607 31.5833C146.444 32.0124 146.194 32.2222 145.859 32.2222C145.447 32.2222 145.14 31.9552 144.929 31.4307C144.852 31.24 144.564 30.5153 144.047 29.266C142.139 24.6792 140.796 21.208 140.039 18.8335C139.876 18.309 139.694 18.0516 139.483 18.0611C139.233 18.0706 138.946 18.5284 138.601 19.4343C138.217 20.426 137.431 22.1998 136.242 24.765C135.053 27.3302 134.181 29.123 133.624 30.1338C133.394 30.582 133.241 30.8967 133.164 31.0683C132.829 31.8217 132.455 32.2031 132.033 32.2031C131.621 32.2031 131.295 31.7931 131.045 30.973C130.949 30.6583 130.767 30.191 130.489 29.5807C128.821 25.7663 127.21 21.6657 125.676 17.2696C124.64 14.342 124.103 12.7972 124.055 12.6541L123.058 10.1652C122.397 8.49637 121.62 7.61904 120.738 7.54276C120.431 7.51415 120.278 7.35203 120.278 7.03734C120.278 6.70358 120.47 6.53193 120.853 6.53193C120.939 6.53193 121.39 6.551 122.224 6.58914L124.075 6.68451C124.842 6.72265 125.465 6.74172 125.954 6.74172C126.807 6.74172 127.795 6.69404 128.926 6.59868L129.243 6.57961C129.665 6.57961 129.866 6.75126 129.866 7.08502C129.866 7.40925 129.645 7.57136 129.204 7.57136C128.111 7.57136 127.565 8.08631 127.565 9.12575C127.565 9.69792 128.121 11.5479 129.243 14.6567L131.045 19.6536L132.167 22.915L132.79 24.641C133.097 25.5183 133.385 25.957 133.653 25.957C133.97 25.957 134.391 25.3562 134.909 24.1451C134.948 24.0498 135.417 23.0771 136.309 21.2366C136.616 20.6168 137.095 19.5773 137.728 18.1278C138.073 17.3363 138.371 16.6688 138.61 16.1348C138.706 15.925 138.754 15.7724 138.754 15.6771C138.754 15.5626 138.706 15.4005 138.62 15.1812C138.409 14.6948 138.102 13.8843 137.719 12.7685C137.095 10.9376 136.501 9.62163 135.945 8.83013C135.389 8.03863 134.727 7.5809 133.96 7.45693C133.624 7.39018 133.461 7.21853 133.461 6.93244C133.461 6.60822 133.692 6.4461 134.161 6.4461C134.43 6.4461 134.727 6.45564 135.043 6.48425C136.769 6.62729 137.786 6.70358 138.093 6.70358C140.202 6.70358 141.42 6.67497 141.765 6.62729C142.302 6.57007 142.685 6.53193 142.887 6.51285C143.203 6.50332 143.366 6.70358 143.366 7.11363C143.366 7.31389 143.232 7.45693 142.963 7.54276L142.388 7.72394C141.64 7.97188 141.266 8.48683 141.266 9.27833C141.266 10.0508 141.909 12.1678 143.184 15.6485L145.101 20.8838L145.897 23.0485C146.118 23.6493 146.262 24.0498 146.338 24.2596C146.616 25.1655 146.923 25.6042 147.24 25.5946C147.546 25.5851 147.863 25.1178 148.179 24.2023C148.256 23.983 148.63 23.0771 149.301 21.475C149.598 20.7693 150.097 19.4438 150.797 17.5175C151.152 16.5544 151.621 15.3052 152.197 13.7794C152.801 12.1964 153.098 11.052 153.098 10.3559C153.098 9.47859 152.887 8.83967 152.456 8.42961C152.024 8.0291 151.199 7.69533 149.982 7.43786C149.627 7.36157 149.464 7.20899 149.483 6.97059C149.56 6.60822 149.732 6.41749 150.049 6.40796Z" fill="black"/>
</svg>
