<svg width="599" height="662" viewBox="0 0 599 662" fill="none" xmlns="http://www.w3.org/2000/svg">
<g opacity="0.023112">
<path fill-rule="evenodd" clip-rule="evenodd" d="M410 550.889C410 551.62 408.944 553 408.214 553C407.158 553 405.615 552.513 404.884 551.782C392.46 539.195 376.869 526.446 361.197 518.001C343.738 508.744 324.087 504.196 310.282 499.324C296.965 494.614 258.312 481.621 243.858 480.972C231.596 480.485 201.713 475.694 195.217 474.475C176.703 470.415 162.492 464 144.871 454.337C132.447 447.516 114.42 428.595 109.548 423.398C108.492 422.342 89.4091 407.644 79.2587 403.665C67.1594 398.793 37.2766 394.571 24.8525 392.459C20.7923 391.728 14.5396 389.698 15.0269 384.745C16.2449 369.722 17.1381 359.003 21.3607 341.869C25.4209 325.628 27.6946 318.401 32.242 306.708C34.5157 300.78 36.4645 301.429 43.9352 303.378C53.7609 305.814 119.86 348.122 128.062 354.618C134.152 359.328 140.811 364.444 148.363 366.88C161.68 371.427 201.551 378.573 207.479 379.304C228.673 382.065 246.294 385.394 264.159 393.434C273.578 397.656 283.404 401.31 292.336 406.02C302.812 411.623 341.302 435.091 349.666 441.507C359.979 449.383 383.284 470.74 385.152 472.851C390.43 478.617 390.43 481.053 395.465 486.981C395.871 487.387 409.838 544.555 410 550.889Z" fill="black"/>
<path fill-rule="evenodd" clip-rule="evenodd" d="M9.52649 559.146C7.57643 556.867 0.913748 535.873 0.101225 513.74C-0.79255 491.444 4.48885 471.834 5.87014 464.836C6.60141 461.337 7.9827 460.604 11.8016 461.174C20.9018 462.232 81.4348 478.181 92.3226 481.842C99.6353 484.283 102.154 490.956 104.754 496.571C108.979 505.684 115.398 512.845 124.336 518.297C126.611 519.68 129.049 520.575 131.486 521.633C141.48 526.027 150.905 531.235 161.387 534.246C178.856 539.291 196.894 543.359 215.664 542.302C227.364 541.569 239.308 538.477 251.008 539.535C257.102 540.023 263.277 545.312 266.446 546.696C279.772 553.043 292.853 559.471 306.341 565.248C314.385 568.747 323.16 571.595 331.529 574.362C343.067 578.024 355.174 581.035 366.711 585.022C380.687 589.741 408.394 601.866 414.163 603.981C415.382 604.47 416.925 604.877 417.819 605.528C418.713 606.179 419.363 607.643 419.038 608.701C418.713 609.596 448.939 662.162 441.951 662C438.782 662 436.507 659.396 433.745 658.175C429.032 656.059 405.713 643.284 398.075 640.111C386.862 635.391 374.837 627.986 362.73 625.22C347.13 621.558 332.261 618.71 315.685 621.151C304.147 622.941 292.934 625.871 281.559 627.661C256.533 631.485 231.345 634.984 206.807 625.382C191.369 619.442 175.119 614.723 160.818 607.155C146.843 599.832 134.736 589.416 121.817 580.546C115.154 575.99 108.492 571.27 101.504 567.039C99.0665 565.655 89.6412 561.749 87.8537 560.692C72.6595 551.741 31.1396 558.901 26.427 559.634C24.3957 559.959 11.8016 561.912 9.52649 559.146Z" fill="black"/>
<path fill-rule="evenodd" clip-rule="evenodd" d="M486.434 123.269C494.313 128.314 500.81 168.1 521.928 176.725C529.644 179.898 538.173 192.347 538.173 199.018C537.848 216.023 554.579 278.917 558.965 292.26C560.508 296.979 563.189 319.11 563.676 320.982C572.286 354.829 596.571 391.442 598.277 399.985C603.15 422.034 582.195 442.05 571.473 451.325C558.316 462.716 542.071 467.272 525.258 461.495C512.994 457.265 489.927 435.052 487.977 433.1C481.886 426.103 482.698 417.315 482.698 409.098C482.86 397.87 479.205 388.431 472.708 379.807C469.378 375.413 410.979 325.131 357.454 309.347C352.906 304.953 345.758 293.888 348.682 291.284C356.236 285.182 375.242 294.457 376.704 294.783C444.199 316.018 500.242 376.227 504.059 374.193C506.658 372.81 509.501 368.579 509.664 365.568C509.826 355.073 505.846 345.96 498.617 337.742C493.907 332.291 478.15 308.289 472.058 301.78C466.454 295.84 449.803 282.497 443.387 278.835C438.351 276.069 400.908 257.274 396.197 255.159C387.993 251.335 384.663 210.328 406.349 223.59C421.051 232.703 455.001 252.311 471.083 255.972C478.799 257.762 485.622 265.817 488.546 271.92C491.307 277.371 509.745 298.363 517.623 309.428C523.065 317.157 528.263 332.372 528.67 338.312C529.157 346.529 530.456 351.086 536.548 354.747C543.696 359.141 554.579 354.259 554.904 345.797C555.067 339.858 554.173 333.349 551.899 327.897C546.295 314.391 533.868 264.109 530.7 258.169C528.101 253.287 513.4 228.065 510.395 223.102C508.608 219.929 507.958 215.535 508.283 211.874C509.501 196.984 495.856 198.205 473.114 158.581C470.677 156.628 468.728 154.025 466.616 151.746C460.362 145.888 481.561 120.096 486.434 123.269Z" fill="black"/>
<path fill-rule="evenodd" clip-rule="evenodd" d="M244.016 211.579C235.969 209.144 215.647 177.809 206.381 157.027C196.545 135.189 173.785 114.895 166.144 108.968C164.356 107.751 160.372 106.533 160.047 103.692C159.722 100.039 161.104 96.548 163.218 94.4373C171.834 84.6146 198.902 56.8512 230.604 40.94C236.538 37.9364 238.651 38.1799 243.366 43.3754C248.243 48.9768 278.563 91.5961 283.847 108.076C294.739 142.009 296.121 173.1 300.266 188.119C303.924 201.594 319.531 219.779 324.571 228.546C330.505 238.693 337.333 248.516 340.828 259.638C362.207 298.766 408.784 304.774 421.546 313.298C425.61 315.895 401.224 325.393 394.965 324.987C375.375 323.445 331.562 319.386 308.639 246.649C303.762 230.9 287.83 218.886 276.937 213.447C266.045 207.926 257.672 215.801 244.016 211.579Z" fill="black"/>
<path fill-rule="evenodd" clip-rule="evenodd" d="M63.3035 231.652C58.9219 230.76 58.0294 227.599 59.9768 223.789C66.3058 211.387 71.4988 202.633 82.3716 189.015C85.3739 185.367 97.2204 169.804 109.31 176.775C121.563 184.638 133.085 193.392 144.607 202.065C150.043 206.118 161.727 217.223 163.675 222.006C168.543 235.462 176.982 246.81 190.776 254.268C200.35 259.536 208.627 264.562 218.039 268.939C223.313 271.371 228.669 271.938 235.484 270.155C251.55 266.102 252.767 266.507 268.671 270.317C275.649 272.425 281.41 281.665 285.629 290.42C293.338 306.307 289.281 326.41 342.428 341.082C353.625 344.243 353.463 358.753 360.928 367.102C366.202 373.019 372.612 386.475 379.591 391.176C381.7 392.554 384.459 393.122 386.406 394.5C387.624 395.554 389.571 397.499 388.841 399.039C387.948 400.822 384.459 401.309 382.917 400.822C379.428 399.607 347.459 382.827 342.022 379.342C330.338 371.641 289.443 350.16 279.463 344.243C264.452 335.327 250.658 327.869 232.482 328.031C222.908 328.031 213.252 326.978 204.002 325.032C187.611 321.709 173.249 314.17 160.673 304.281C155.804 300.471 139.495 284.746 137.223 280.693C130.894 268.615 120.832 259.78 109.473 252.403C100.304 246.729 71.8233 233.273 63.3035 231.652Z" fill="black"/>
<path fill-rule="evenodd" clip-rule="evenodd" d="M412.201 12.2323C412.037 19.4072 412.695 35.2248 412.695 45.4165C412.695 62.6202 407.926 77.867 407.021 95.4783C406.117 114.639 407.021 123.608 413.435 139.344C416.23 143.746 416.97 148.312 414.504 152.144C407.103 163.722 400.197 169.674 398.388 185.329C396.414 203.266 412.695 233.76 414.832 245.582C415.737 250.148 417.299 253.165 413.599 255.448C408.255 258.628 398.552 255.937 398.552 255.937C389.179 252.757 377.503 224.302 374.461 213.621C370.35 198.863 367.718 183.616 364.183 168.533C360.483 152.389 339.022 84.6343 336.885 77.0517C332.28 60.0111 324.305 46.1503 314.767 34.2464C312.3 31.0666 312.3 27.3976 315.507 25.2777C319.947 22.0979 324.387 19.1626 329.156 16.8797C346.669 8.80785 375.694 -0.160877 396.25 0.00219113C414.997 -0.0793427 412.201 9.21552 412.201 12.2323Z" fill="black"/>
<path fill-rule="evenodd" clip-rule="evenodd" d="M511.319 102.283C509.38 104.722 487.969 135.044 498.069 145.856C505.017 153.416 490.07 157.237 479.809 157.968C468.659 158.7 460.499 146.587 465.508 135.532C471.083 123.256 483.122 85.7803 487.404 73.3425C491.443 61.4737 493.706 49.1985 496.614 36.9232C497.341 34.4845 499.604 23.7538 502.351 23.1034C505.34 22.3718 507.199 25.7048 509.299 27.3307C513.097 30.5011 543.718 49.3611 549.131 52.6941C551.394 54.076 553.656 56.1897 553.979 58.4659C554.302 60.5795 550.828 61.7989 548.727 62.8557C526.509 73.4238 513.097 100.169 511.319 102.283Z" fill="black"/>
<path fill-rule="evenodd" clip-rule="evenodd" d="M472.773 197.275C472.773 199.901 472.45 202.609 473.258 205.071C475.034 210.406 477.456 215.494 479.556 220.664C479.878 221.731 480.444 223.701 479.394 224.522C478.021 225.589 475.357 224.686 474.388 223.619C467.929 217.053 460.097 213.032 451.458 213.196C442.092 213.524 438.944 207.533 436.844 200.639C435.31 195.551 435.31 190.052 434.261 184.882C433.938 182.748 432.888 180.614 432 178.316C439.993 171.915 457.917 176.347 461.712 178.645C472.612 185.292 472.935 194.156 472.773 197.275Z" fill="black"/>
</g>
</svg>
