<svg width="14" height="17" viewBox="0 0 14 17" fill="none" xmlns="http://www.w3.org/2000/svg">
<path fill-rule="evenodd" clip-rule="evenodd" d="M3.27801 4.93996L5.74961 2.51258V13.263C5.74961 13.6684 6.08729 14 6.5 14C6.91271 14 7.25039 13.6684 7.25039 13.263V2.51258L9.72199 4.93996C9.86738 5.08274 10.0597 5.15644 10.252 5.15644C10.4442 5.15644 10.6365 5.08274 10.7819 4.93996C11.0727 4.65438 11.0727 4.18457 10.7819 3.899L7.02996 0.21418C6.73919 -0.0713933 6.26081 -0.0713933 5.97004 0.21418L2.21808 3.899C1.92731 4.18457 1.92731 4.65438 2.21808 4.93996C2.50886 5.23014 2.98723 5.23014 3.27801 4.93996V4.93996Z" fill="white"/>
<path fill-rule="evenodd" clip-rule="evenodd" d="M13.3 12C12.915 12 12.6 12.2812 12.6 12.625V15.125C12.6 15.4688 12.285 15.75 11.9 15.75H2.1C1.715 15.75 1.4 15.4688 1.4 15.125V12.625C1.4 12.2812 1.085 12 0.7 12C0.315 12 0 12.2812 0 12.625V15.125C0 16.1602 0.940625 17 2.1 17H11.9C13.0594 17 14 16.1602 14 15.125V12.625C14 12.2812 13.685 12 13.3 12Z" fill="white"/>
</svg>
